<mxfile host="app.diagrams.net" modified="2023-05-15T01:12:26.242Z" agent="Mozilla/5.0 (Windows NT 10.0; Win64; x64) AppleWebKit/537.36 (KHTML, like Gecko) Chrome/113.0.0.0 Safari/537.36" etag="w6gJEHsuiq_WcH-pXePJ" version="21.2.9" type="onedrive">
  <diagram name="PÃ¡gina-1" id="vpCgjhyRwukyWJAxqVYm">
    <mxGraphModel grid="0" page="0" gridSize="10" guides="1" tooltips="1" connect="1" arrows="1" fold="1" pageScale="1" pageWidth="1100" pageHeight="850" background="none" math="0" shadow="0">
      <root>
        <mxCell id="0" />
        <mxCell id="1" parent="0" />
        <mxCell id="dq-Q5Z8Co1_moTkSFwci-73" value="1" style="edgeStyle=orthogonalEdgeStyle;rounded=0;orthogonalLoop=1;jettySize=auto;html=1;entryX=0.25;entryY=1;entryDx=0;entryDy=0;endArrow=blockThin;endFill=0;" edge="1" parent="1" source="dq-Q5Z8Co1_moTkSFwci-9" target="dq-Q5Z8Co1_moTkSFwci-64">
          <mxGeometry x="0.7007" relative="1" as="geometry">
            <mxPoint as="offset" />
          </mxGeometry>
        </mxCell>
        <mxCell id="dq-Q5Z8Co1_moTkSFwci-74" value="n" style="edgeLabel;html=1;align=center;verticalAlign=middle;resizable=0;points=[];" vertex="1" connectable="0" parent="dq-Q5Z8Co1_moTkSFwci-73">
          <mxGeometry x="-0.6575" y="1" relative="1" as="geometry">
            <mxPoint x="1" y="5" as="offset" />
          </mxGeometry>
        </mxCell>
        <mxCell id="dq-Q5Z8Co1_moTkSFwci-9" value="Persona" style="swimlane;fontStyle=0;align=center;verticalAlign=top;childLayout=stackLayout;horizontal=1;startSize=30;horizontalStack=0;resizeParent=1;resizeParentMax=0;resizeLast=0;collapsible=0;marginBottom=0;html=1;whiteSpace=wrap;" vertex="1" parent="1">
          <mxGeometry x="490" y="170" width="140" height="98" as="geometry" />
        </mxCell>
        <mxCell id="dq-Q5Z8Co1_moTkSFwci-11" value="+ DNIC" style="text;html=1;strokeColor=none;fillColor=none;align=left;verticalAlign=middle;spacingLeft=4;spacingRight=4;overflow=hidden;rotatable=0;points=[[0,0.5],[1,0.5]];portConstraint=eastwest;whiteSpace=wrap;" vertex="1" parent="dq-Q5Z8Co1_moTkSFwci-9">
          <mxGeometry y="30" width="140" height="20" as="geometry" />
        </mxCell>
        <mxCell id="dq-Q5Z8Co1_moTkSFwci-153" value="+ edad" style="text;html=1;strokeColor=none;fillColor=none;align=left;verticalAlign=middle;spacingLeft=4;spacingRight=4;overflow=hidden;rotatable=0;points=[[0,0.5],[1,0.5]];portConstraint=eastwest;whiteSpace=wrap;" vertex="1" parent="dq-Q5Z8Co1_moTkSFwci-9">
          <mxGeometry y="50" width="140" height="20" as="geometry" />
        </mxCell>
        <mxCell id="dq-Q5Z8Co1_moTkSFwci-71" value="+ sexo" style="text;html=1;strokeColor=none;fillColor=none;align=left;verticalAlign=middle;spacingLeft=4;spacingRight=4;overflow=hidden;rotatable=0;points=[[0,0.5],[1,0.5]];portConstraint=eastwest;whiteSpace=wrap;" vertex="1" parent="dq-Q5Z8Co1_moTkSFwci-9">
          <mxGeometry y="70" width="140" height="20" as="geometry" />
        </mxCell>
        <mxCell id="dq-Q5Z8Co1_moTkSFwci-12" value="" style="line;strokeWidth=1;fillColor=none;align=left;verticalAlign=middle;spacingTop=-1;spacingLeft=3;spacingRight=3;rotatable=0;labelPosition=right;points=[];portConstraint=eastwest;" vertex="1" parent="dq-Q5Z8Co1_moTkSFwci-9">
          <mxGeometry y="90" width="140" height="8" as="geometry" />
        </mxCell>
        <mxCell id="dq-Q5Z8Co1_moTkSFwci-21" value="Atleta" style="swimlane;fontStyle=0;align=center;verticalAlign=top;childLayout=stackLayout;horizontal=1;startSize=30;horizontalStack=0;resizeParent=1;resizeParentMax=0;resizeLast=0;collapsible=0;marginBottom=0;html=1;whiteSpace=wrap;" vertex="1" parent="1">
          <mxGeometry x="580" y="340" width="150" height="138" as="geometry" />
        </mxCell>
        <mxCell id="dq-Q5Z8Co1_moTkSFwci-22" value="+ puntuacion" style="text;html=1;strokeColor=none;fillColor=none;align=left;verticalAlign=middle;spacingLeft=4;spacingRight=4;overflow=hidden;rotatable=0;points=[[0,0.5],[1,0.5]];portConstraint=eastwest;whiteSpace=wrap;" vertex="1" parent="dq-Q5Z8Co1_moTkSFwci-21">
          <mxGeometry y="30" width="150" height="20" as="geometry" />
        </mxCell>
        <mxCell id="dq-Q5Z8Co1_moTkSFwci-156" value="+ nacionalidad" style="text;html=1;strokeColor=none;fillColor=none;align=left;verticalAlign=middle;spacingLeft=4;spacingRight=4;overflow=hidden;rotatable=0;points=[[0,0.5],[1,0.5]];portConstraint=eastwest;whiteSpace=wrap;" vertex="1" parent="dq-Q5Z8Co1_moTkSFwci-21">
          <mxGeometry y="50" width="150" height="20" as="geometry" />
        </mxCell>
        <mxCell id="dq-Q5Z8Co1_moTkSFwci-139" value="+ carne_salud" style="text;html=1;strokeColor=none;fillColor=none;align=left;verticalAlign=middle;spacingLeft=4;spacingRight=4;overflow=hidden;rotatable=0;points=[[0,0.5],[1,0.5]];portConstraint=eastwest;whiteSpace=wrap;" vertex="1" parent="dq-Q5Z8Co1_moTkSFwci-21">
          <mxGeometry y="70" width="150" height="20" as="geometry" />
        </mxCell>
        <mxCell id="dq-Q5Z8Co1_moTkSFwci-24" value="" style="line;strokeWidth=1;fillColor=none;align=left;verticalAlign=middle;spacingTop=-1;spacingLeft=3;spacingRight=3;rotatable=0;labelPosition=right;points=[];portConstraint=eastwest;" vertex="1" parent="dq-Q5Z8Co1_moTkSFwci-21">
          <mxGeometry y="90" width="150" height="8" as="geometry" />
        </mxCell>
        <mxCell id="dq-Q5Z8Co1_moTkSFwci-26" value="+ inscribir_competencia()" style="text;html=1;strokeColor=none;fillColor=none;align=left;verticalAlign=middle;spacingLeft=4;spacingRight=4;overflow=hidden;rotatable=0;points=[[0,0.5],[1,0.5]];portConstraint=eastwest;whiteSpace=wrap;" vertex="1" parent="dq-Q5Z8Co1_moTkSFwci-21">
          <mxGeometry y="98" width="150" height="20" as="geometry" />
        </mxCell>
        <mxCell id="dq-Q5Z8Co1_moTkSFwci-75" value="+ competir()" style="text;html=1;strokeColor=none;fillColor=none;align=left;verticalAlign=middle;spacingLeft=4;spacingRight=4;overflow=hidden;rotatable=0;points=[[0,0.5],[1,0.5]];portConstraint=eastwest;whiteSpace=wrap;" vertex="1" parent="dq-Q5Z8Co1_moTkSFwci-21">
          <mxGeometry y="118" width="150" height="20" as="geometry" />
        </mxCell>
        <mxCell id="dq-Q5Z8Co1_moTkSFwci-28" value="Juez" style="swimlane;fontStyle=0;align=center;verticalAlign=top;childLayout=stackLayout;horizontal=1;startSize=30;horizontalStack=0;resizeParent=1;resizeParentMax=0;resizeLast=0;collapsible=0;marginBottom=0;html=1;whiteSpace=wrap;" vertex="1" parent="1">
          <mxGeometry x="410" y="340" width="140" height="98" as="geometry" />
        </mxCell>
        <mxCell id="dq-Q5Z8Co1_moTkSFwci-29" value="+" style="text;html=1;strokeColor=none;fillColor=none;align=left;verticalAlign=middle;spacingLeft=4;spacingRight=4;overflow=hidden;rotatable=0;points=[[0,0.5],[1,0.5]];portConstraint=eastwest;whiteSpace=wrap;" vertex="1" parent="dq-Q5Z8Co1_moTkSFwci-28">
          <mxGeometry y="30" width="140" height="20" as="geometry" />
        </mxCell>
        <mxCell id="dq-Q5Z8Co1_moTkSFwci-31" value="" style="line;strokeWidth=1;fillColor=none;align=left;verticalAlign=middle;spacingTop=-1;spacingLeft=3;spacingRight=3;rotatable=0;labelPosition=right;points=[];portConstraint=eastwest;" vertex="1" parent="dq-Q5Z8Co1_moTkSFwci-28">
          <mxGeometry y="50" width="140" height="8" as="geometry" />
        </mxCell>
        <mxCell id="dq-Q5Z8Co1_moTkSFwci-140" value="+ revisar_rendimiento()" style="text;html=1;strokeColor=none;fillColor=none;align=left;verticalAlign=middle;spacingLeft=4;spacingRight=4;overflow=hidden;rotatable=0;points=[[0,0.5],[1,0.5]];portConstraint=eastwest;whiteSpace=wrap;" vertex="1" parent="dq-Q5Z8Co1_moTkSFwci-28">
          <mxGeometry y="58" width="140" height="20" as="geometry" />
        </mxCell>
        <mxCell id="dq-Q5Z8Co1_moTkSFwci-137" value="+ validar_rendimiento()" style="text;html=1;strokeColor=none;fillColor=none;align=left;verticalAlign=middle;spacingLeft=4;spacingRight=4;overflow=hidden;rotatable=0;points=[[0,0.5],[1,0.5]];portConstraint=eastwest;whiteSpace=wrap;" vertex="1" parent="dq-Q5Z8Co1_moTkSFwci-28">
          <mxGeometry y="78" width="140" height="20" as="geometry" />
        </mxCell>
        <mxCell id="dq-Q5Z8Co1_moTkSFwci-51" style="edgeStyle=orthogonalEdgeStyle;rounded=0;orthogonalLoop=1;jettySize=auto;html=1;endArrow=block;endFill=0;entryX=0.25;entryY=1;entryDx=0;entryDy=0;" edge="1" parent="1" source="dq-Q5Z8Co1_moTkSFwci-34" target="dq-Q5Z8Co1_moTkSFwci-9">
          <mxGeometry relative="1" as="geometry">
            <mxPoint x="532" y="291" as="targetPoint" />
            <Array as="points">
              <mxPoint x="299" y="299" />
              <mxPoint x="525" y="299" />
            </Array>
          </mxGeometry>
        </mxCell>
        <mxCell id="dq-Q5Z8Co1_moTkSFwci-56" value="n" style="edgeLabel;html=1;align=center;verticalAlign=middle;resizable=0;points=[];" vertex="1" connectable="0" parent="dq-Q5Z8Co1_moTkSFwci-51">
          <mxGeometry x="-0.8649" relative="1" as="geometry">
            <mxPoint as="offset" />
          </mxGeometry>
        </mxCell>
        <mxCell id="dq-Q5Z8Co1_moTkSFwci-72" value="1" style="edgeLabel;html=1;align=center;verticalAlign=middle;resizable=0;points=[];" vertex="1" connectable="0" parent="dq-Q5Z8Co1_moTkSFwci-51">
          <mxGeometry x="0.704" y="1" relative="1" as="geometry">
            <mxPoint as="offset" />
          </mxGeometry>
        </mxCell>
        <mxCell id="dq-Q5Z8Co1_moTkSFwci-34" value="Administrador" style="swimlane;fontStyle=0;align=center;verticalAlign=top;childLayout=stackLayout;horizontal=1;startSize=30;horizontalStack=0;resizeParent=1;resizeParentMax=0;resizeLast=0;collapsible=0;marginBottom=0;html=1;whiteSpace=wrap;" vertex="1" parent="1">
          <mxGeometry x="240" y="340" width="140" height="98" as="geometry" />
        </mxCell>
        <mxCell id="dq-Q5Z8Co1_moTkSFwci-35" value="+" style="text;html=1;strokeColor=none;fillColor=none;align=left;verticalAlign=middle;spacingLeft=4;spacingRight=4;overflow=hidden;rotatable=0;points=[[0,0.5],[1,0.5]];portConstraint=eastwest;whiteSpace=wrap;" vertex="1" parent="dq-Q5Z8Co1_moTkSFwci-34">
          <mxGeometry y="30" width="140" height="20" as="geometry" />
        </mxCell>
        <mxCell id="dq-Q5Z8Co1_moTkSFwci-37" value="" style="line;strokeWidth=1;fillColor=none;align=left;verticalAlign=middle;spacingTop=-1;spacingLeft=3;spacingRight=3;rotatable=0;labelPosition=right;points=[];portConstraint=eastwest;" vertex="1" parent="dq-Q5Z8Co1_moTkSFwci-34">
          <mxGeometry y="50" width="140" height="8" as="geometry" />
        </mxCell>
        <mxCell id="dq-Q5Z8Co1_moTkSFwci-39" value="+ organizar()" style="text;html=1;strokeColor=none;fillColor=none;align=left;verticalAlign=middle;spacingLeft=4;spacingRight=4;overflow=hidden;rotatable=0;points=[[0,0.5],[1,0.5]];portConstraint=eastwest;whiteSpace=wrap;" vertex="1" parent="dq-Q5Z8Co1_moTkSFwci-34">
          <mxGeometry y="58" width="140" height="20" as="geometry" />
        </mxCell>
        <mxCell id="dq-Q5Z8Co1_moTkSFwci-84" value="+ gestionar()" style="text;html=1;strokeColor=none;fillColor=none;align=left;verticalAlign=middle;spacingLeft=4;spacingRight=4;overflow=hidden;rotatable=0;points=[[0,0.5],[1,0.5]];portConstraint=eastwest;whiteSpace=wrap;" vertex="1" parent="dq-Q5Z8Co1_moTkSFwci-34">
          <mxGeometry y="78" width="140" height="20" as="geometry" />
        </mxCell>
        <mxCell id="dq-Q5Z8Co1_moTkSFwci-52" style="edgeStyle=orthogonalEdgeStyle;rounded=0;orthogonalLoop=1;jettySize=auto;html=1;entryX=0.5;entryY=1;entryDx=0;entryDy=0;endArrow=block;endFill=0;" edge="1" parent="1" source="dq-Q5Z8Co1_moTkSFwci-40" target="dq-Q5Z8Co1_moTkSFwci-64">
          <mxGeometry relative="1" as="geometry">
            <mxPoint x="600" y="218" as="targetPoint" />
            <Array as="points">
              <mxPoint x="840" y="199" />
              <mxPoint x="680" y="199" />
            </Array>
          </mxGeometry>
        </mxCell>
        <mxCell id="dq-Q5Z8Co1_moTkSFwci-55" value="n" style="edgeLabel;html=1;align=center;verticalAlign=middle;resizable=0;points=[];" vertex="1" connectable="0" parent="dq-Q5Z8Co1_moTkSFwci-52">
          <mxGeometry x="-0.8832" y="-3" relative="1" as="geometry">
            <mxPoint x="-3" as="offset" />
          </mxGeometry>
        </mxCell>
        <mxCell id="dq-Q5Z8Co1_moTkSFwci-60" value="1" style="edgeLabel;html=1;align=center;verticalAlign=middle;resizable=0;points=[];" vertex="1" connectable="0" parent="dq-Q5Z8Co1_moTkSFwci-52">
          <mxGeometry x="0.8295" y="2" relative="1" as="geometry">
            <mxPoint as="offset" />
          </mxGeometry>
        </mxCell>
        <mxCell id="dq-Q5Z8Co1_moTkSFwci-40" value="Gimnasio" style="swimlane;fontStyle=0;align=center;verticalAlign=top;childLayout=stackLayout;horizontal=1;startSize=30;horizontalStack=0;resizeParent=1;resizeParentMax=0;resizeLast=0;collapsible=0;marginBottom=0;html=1;whiteSpace=wrap;" vertex="1" parent="1">
          <mxGeometry x="770" y="340" width="160" height="158" as="geometry" />
        </mxCell>
        <mxCell id="dq-Q5Z8Co1_moTkSFwci-42" value="+ ciudad" style="text;html=1;strokeColor=none;fillColor=none;align=left;verticalAlign=middle;spacingLeft=4;spacingRight=4;overflow=hidden;rotatable=0;points=[[0,0.5],[1,0.5]];portConstraint=eastwest;whiteSpace=wrap;" vertex="1" parent="dq-Q5Z8Co1_moTkSFwci-40">
          <mxGeometry y="30" width="160" height="20" as="geometry" />
        </mxCell>
        <mxCell id="dq-Q5Z8Co1_moTkSFwci-76" value="+ miembros" style="text;html=1;strokeColor=none;fillColor=none;align=left;verticalAlign=middle;spacingLeft=4;spacingRight=4;overflow=hidden;rotatable=0;points=[[0,0.5],[1,0.5]];portConstraint=eastwest;whiteSpace=wrap;" vertex="1" parent="dq-Q5Z8Co1_moTkSFwci-40">
          <mxGeometry y="50" width="160" height="20" as="geometry" />
        </mxCell>
        <mxCell id="dq-Q5Z8Co1_moTkSFwci-43" value="" style="line;strokeWidth=1;fillColor=none;align=left;verticalAlign=middle;spacingTop=-1;spacingLeft=3;spacingRight=3;rotatable=0;labelPosition=right;points=[];portConstraint=eastwest;" vertex="1" parent="dq-Q5Z8Co1_moTkSFwci-40">
          <mxGeometry y="70" width="160" height="8" as="geometry" />
        </mxCell>
        <mxCell id="dq-Q5Z8Co1_moTkSFwci-45" value="+ generar_competencia()" style="text;html=1;strokeColor=none;fillColor=none;align=left;verticalAlign=middle;spacingLeft=4;spacingRight=4;overflow=hidden;rotatable=0;points=[[0,0.5],[1,0.5]];portConstraint=eastwest;whiteSpace=wrap;" vertex="1" parent="dq-Q5Z8Co1_moTkSFwci-40">
          <mxGeometry y="78" width="160" height="20" as="geometry" />
        </mxCell>
        <mxCell id="dq-Q5Z8Co1_moTkSFwci-77" value="+ generar_WOD()" style="text;html=1;strokeColor=none;fillColor=none;align=left;verticalAlign=middle;spacingLeft=4;spacingRight=4;overflow=hidden;rotatable=0;points=[[0,0.5],[1,0.5]];portConstraint=eastwest;whiteSpace=wrap;" vertex="1" parent="dq-Q5Z8Co1_moTkSFwci-40">
          <mxGeometry y="98" width="160" height="20" as="geometry" />
        </mxCell>
        <mxCell id="dq-Q5Z8Co1_moTkSFwci-78" value="+ generar_heat()" style="text;html=1;strokeColor=none;fillColor=none;align=left;verticalAlign=middle;spacingLeft=4;spacingRight=4;overflow=hidden;rotatable=0;points=[[0,0.5],[1,0.5]];portConstraint=eastwest;whiteSpace=wrap;" vertex="1" parent="dq-Q5Z8Co1_moTkSFwci-40">
          <mxGeometry y="118" width="160" height="20" as="geometry" />
        </mxCell>
        <mxCell id="dq-Q5Z8Co1_moTkSFwci-79" value="+ registrar_atleta()" style="text;html=1;strokeColor=none;fillColor=none;align=left;verticalAlign=middle;spacingLeft=4;spacingRight=4;overflow=hidden;rotatable=0;points=[[0,0.5],[1,0.5]];portConstraint=eastwest;whiteSpace=wrap;" vertex="1" parent="dq-Q5Z8Co1_moTkSFwci-40">
          <mxGeometry y="138" width="160" height="20" as="geometry" />
        </mxCell>
        <mxCell id="dq-Q5Z8Co1_moTkSFwci-53" value="1" style="edgeStyle=orthogonalEdgeStyle;rounded=0;orthogonalLoop=1;jettySize=auto;html=1;exitX=0.5;exitY=0;exitDx=0;exitDy=0;entryX=0.75;entryY=1;entryDx=0;entryDy=0;endArrow=block;endFill=0;" edge="1" parent="1" source="dq-Q5Z8Co1_moTkSFwci-21" target="dq-Q5Z8Co1_moTkSFwci-9">
          <mxGeometry x="0.7921" relative="1" as="geometry">
            <mxPoint x="300" y="340" as="sourcePoint" />
            <mxPoint x="510" y="220" as="targetPoint" />
            <Array as="points">
              <mxPoint x="655" y="311" />
              <mxPoint x="595" y="311" />
            </Array>
            <mxPoint as="offset" />
          </mxGeometry>
        </mxCell>
        <mxCell id="dq-Q5Z8Co1_moTkSFwci-58" value="n" style="edgeLabel;html=1;align=center;verticalAlign=middle;resizable=0;points=[];" vertex="1" connectable="0" parent="dq-Q5Z8Co1_moTkSFwci-53">
          <mxGeometry x="-0.8724" relative="1" as="geometry">
            <mxPoint y="-3" as="offset" />
          </mxGeometry>
        </mxCell>
        <mxCell id="dq-Q5Z8Co1_moTkSFwci-54" style="edgeStyle=orthogonalEdgeStyle;rounded=0;orthogonalLoop=1;jettySize=auto;html=1;endArrow=block;endFill=0;entryX=0.5;entryY=1;entryDx=0;entryDy=0;" edge="1" parent="1" source="dq-Q5Z8Co1_moTkSFwci-28" target="dq-Q5Z8Co1_moTkSFwci-9">
          <mxGeometry relative="1" as="geometry">
            <mxPoint x="480" y="340" as="sourcePoint" />
            <mxPoint x="600" y="190" as="targetPoint" />
            <Array as="points">
              <mxPoint x="480" y="310" />
              <mxPoint x="560" y="310" />
            </Array>
          </mxGeometry>
        </mxCell>
        <mxCell id="dq-Q5Z8Co1_moTkSFwci-57" value="n" style="edgeLabel;html=1;align=center;verticalAlign=middle;resizable=0;points=[];" vertex="1" connectable="0" parent="dq-Q5Z8Co1_moTkSFwci-54">
          <mxGeometry x="-0.8232" y="1" relative="1" as="geometry">
            <mxPoint as="offset" />
          </mxGeometry>
        </mxCell>
        <mxCell id="dq-Q5Z8Co1_moTkSFwci-59" value="1" style="edgeLabel;html=1;align=center;verticalAlign=middle;resizable=0;points=[];" vertex="1" connectable="0" parent="dq-Q5Z8Co1_moTkSFwci-54">
          <mxGeometry x="0.8105" relative="1" as="geometry">
            <mxPoint y="10" as="offset" />
          </mxGeometry>
        </mxCell>
        <mxCell id="dq-Q5Z8Co1_moTkSFwci-64" value="Usuario" style="swimlane;fontStyle=0;align=center;verticalAlign=top;childLayout=stackLayout;horizontal=1;startSize=30;horizontalStack=0;resizeParent=1;resizeParentMax=0;resizeLast=0;collapsible=0;marginBottom=0;html=1;whiteSpace=wrap;" vertex="1" parent="1">
          <mxGeometry x="610" y="10" width="140" height="108" as="geometry" />
        </mxCell>
        <mxCell id="dq-Q5Z8Co1_moTkSFwci-66" value="+ ID_usuario&lt;br&gt;+ direccion&lt;br&gt;+ nombre&lt;br&gt;+ contacto" style="text;html=1;strokeColor=none;fillColor=none;align=left;verticalAlign=middle;spacingLeft=4;spacingRight=4;overflow=hidden;rotatable=0;points=[[0,0.5],[1,0.5]];portConstraint=eastwest;whiteSpace=wrap;" vertex="1" parent="dq-Q5Z8Co1_moTkSFwci-64">
          <mxGeometry y="30" width="140" height="70" as="geometry" />
        </mxCell>
        <mxCell id="dq-Q5Z8Co1_moTkSFwci-67" value="" style="line;strokeWidth=1;fillColor=none;align=left;verticalAlign=middle;spacingTop=-1;spacingLeft=3;spacingRight=3;rotatable=0;labelPosition=right;points=[];portConstraint=eastwest;" vertex="1" parent="dq-Q5Z8Co1_moTkSFwci-64">
          <mxGeometry y="100" width="140" height="8" as="geometry" />
        </mxCell>
        <mxCell id="dq-Q5Z8Co1_moTkSFwci-80" value="Categoria" style="swimlane;fontStyle=0;align=center;verticalAlign=top;childLayout=stackLayout;horizontal=1;startSize=30;horizontalStack=0;resizeParent=1;resizeParentMax=0;resizeLast=0;collapsible=0;marginBottom=0;html=1;whiteSpace=wrap;" vertex="1" parent="1">
          <mxGeometry x="100" y="630" width="140" height="158" as="geometry" />
        </mxCell>
        <mxCell id="dq-Q5Z8Co1_moTkSFwci-81" value="+ ID_categoria" style="text;html=1;strokeColor=none;fillColor=none;align=left;verticalAlign=middle;spacingLeft=4;spacingRight=4;overflow=hidden;rotatable=0;points=[[0,0.5],[1,0.5]];portConstraint=eastwest;whiteSpace=wrap;" vertex="1" parent="dq-Q5Z8Co1_moTkSFwci-80">
          <mxGeometry y="30" width="140" height="20" as="geometry" />
        </mxCell>
        <mxCell id="dq-Q5Z8Co1_moTkSFwci-86" value="+ nombre" style="text;html=1;strokeColor=none;fillColor=none;align=left;verticalAlign=middle;spacingLeft=4;spacingRight=4;overflow=hidden;rotatable=0;points=[[0,0.5],[1,0.5]];portConstraint=eastwest;whiteSpace=wrap;" vertex="1" parent="dq-Q5Z8Co1_moTkSFwci-80">
          <mxGeometry y="50" width="140" height="20" as="geometry" />
        </mxCell>
        <mxCell id="dq-Q5Z8Co1_moTkSFwci-87" value="+ genero" style="text;html=1;strokeColor=none;fillColor=none;align=left;verticalAlign=middle;spacingLeft=4;spacingRight=4;overflow=hidden;rotatable=0;points=[[0,0.5],[1,0.5]];portConstraint=eastwest;whiteSpace=wrap;" vertex="1" parent="dq-Q5Z8Co1_moTkSFwci-80">
          <mxGeometry y="70" width="140" height="20" as="geometry" />
        </mxCell>
        <mxCell id="dq-Q5Z8Co1_moTkSFwci-88" value="+ edades" style="text;html=1;strokeColor=none;fillColor=none;align=left;verticalAlign=middle;spacingLeft=4;spacingRight=4;overflow=hidden;rotatable=0;points=[[0,0.5],[1,0.5]];portConstraint=eastwest;whiteSpace=wrap;" vertex="1" parent="dq-Q5Z8Co1_moTkSFwci-80">
          <mxGeometry y="90" width="140" height="20" as="geometry" />
        </mxCell>
        <mxCell id="dq-Q5Z8Co1_moTkSFwci-89" value="+ division" style="text;html=1;strokeColor=none;fillColor=none;align=left;verticalAlign=middle;spacingLeft=4;spacingRight=4;overflow=hidden;rotatable=0;points=[[0,0.5],[1,0.5]];portConstraint=eastwest;whiteSpace=wrap;" vertex="1" parent="dq-Q5Z8Co1_moTkSFwci-80">
          <mxGeometry y="110" width="140" height="20" as="geometry" />
        </mxCell>
        <mxCell id="dq-Q5Z8Co1_moTkSFwci-82" value="" style="line;strokeWidth=1;fillColor=none;align=left;verticalAlign=middle;spacingTop=-1;spacingLeft=3;spacingRight=3;rotatable=0;labelPosition=right;points=[];portConstraint=eastwest;" vertex="1" parent="dq-Q5Z8Co1_moTkSFwci-80">
          <mxGeometry y="130" width="140" height="8" as="geometry" />
        </mxCell>
        <mxCell id="dq-Q5Z8Co1_moTkSFwci-83" value="+" style="text;html=1;strokeColor=none;fillColor=none;align=left;verticalAlign=middle;spacingLeft=4;spacingRight=4;overflow=hidden;rotatable=0;points=[[0,0.5],[1,0.5]];portConstraint=eastwest;whiteSpace=wrap;" vertex="1" parent="dq-Q5Z8Co1_moTkSFwci-80">
          <mxGeometry y="138" width="140" height="20" as="geometry" />
        </mxCell>
        <mxCell id="dq-Q5Z8Co1_moTkSFwci-90" value="Competencia" style="swimlane;fontStyle=0;align=center;verticalAlign=top;childLayout=stackLayout;horizontal=1;startSize=30;horizontalStack=0;resizeParent=1;resizeParentMax=0;resizeLast=0;collapsible=0;marginBottom=0;html=1;whiteSpace=wrap;" vertex="1" parent="1">
          <mxGeometry x="444" y="558" width="140" height="238" as="geometry" />
        </mxCell>
        <mxCell id="dq-Q5Z8Co1_moTkSFwci-91" value="+ ID_competencia" style="text;html=1;strokeColor=none;fillColor=none;align=left;verticalAlign=middle;spacingLeft=4;spacingRight=4;overflow=hidden;rotatable=0;points=[[0,0.5],[1,0.5]];portConstraint=eastwest;whiteSpace=wrap;" vertex="1" parent="dq-Q5Z8Co1_moTkSFwci-90">
          <mxGeometry y="30" width="140" height="20" as="geometry" />
        </mxCell>
        <mxCell id="dq-Q5Z8Co1_moTkSFwci-94" value="+ nombre" style="text;html=1;strokeColor=none;fillColor=none;align=left;verticalAlign=middle;spacingLeft=4;spacingRight=4;overflow=hidden;rotatable=0;points=[[0,0.5],[1,0.5]];portConstraint=eastwest;whiteSpace=wrap;" vertex="1" parent="dq-Q5Z8Co1_moTkSFwci-90">
          <mxGeometry y="50" width="140" height="20" as="geometry" />
        </mxCell>
        <mxCell id="dq-Q5Z8Co1_moTkSFwci-268" value="+ competidores" style="text;html=1;strokeColor=none;fillColor=none;align=left;verticalAlign=middle;spacingLeft=4;spacingRight=4;overflow=hidden;rotatable=0;points=[[0,0.5],[1,0.5]];portConstraint=eastwest;whiteSpace=wrap;" vertex="1" parent="dq-Q5Z8Co1_moTkSFwci-90">
          <mxGeometry y="70" width="140" height="20" as="geometry" />
        </mxCell>
        <mxCell id="dq-Q5Z8Co1_moTkSFwci-95" value="+ fecha" style="text;html=1;strokeColor=none;fillColor=none;align=left;verticalAlign=middle;spacingLeft=4;spacingRight=4;overflow=hidden;rotatable=0;points=[[0,0.5],[1,0.5]];portConstraint=eastwest;whiteSpace=wrap;" vertex="1" parent="dq-Q5Z8Co1_moTkSFwci-90">
          <mxGeometry y="90" width="140" height="20" as="geometry" />
        </mxCell>
        <mxCell id="dq-Q5Z8Co1_moTkSFwci-96" value="+ categorias" style="text;html=1;strokeColor=none;fillColor=none;align=left;verticalAlign=middle;spacingLeft=4;spacingRight=4;overflow=hidden;rotatable=0;points=[[0,0.5],[1,0.5]];portConstraint=eastwest;whiteSpace=wrap;" vertex="1" parent="dq-Q5Z8Co1_moTkSFwci-90">
          <mxGeometry y="110" width="140" height="20" as="geometry" />
        </mxCell>
        <mxCell id="dq-Q5Z8Co1_moTkSFwci-97" value="+ etapa" style="text;html=1;strokeColor=none;fillColor=none;align=left;verticalAlign=middle;spacingLeft=4;spacingRight=4;overflow=hidden;rotatable=0;points=[[0,0.5],[1,0.5]];portConstraint=eastwest;whiteSpace=wrap;" vertex="1" parent="dq-Q5Z8Co1_moTkSFwci-90">
          <mxGeometry y="130" width="140" height="20" as="geometry" />
        </mxCell>
        <mxCell id="dq-Q5Z8Co1_moTkSFwci-138" value="+ tabla_puntuacion" style="text;html=1;strokeColor=none;fillColor=none;align=left;verticalAlign=middle;spacingLeft=4;spacingRight=4;overflow=hidden;rotatable=0;points=[[0,0.5],[1,0.5]];portConstraint=eastwest;whiteSpace=wrap;" vertex="1" parent="dq-Q5Z8Co1_moTkSFwci-90">
          <mxGeometry y="150" width="140" height="20" as="geometry" />
        </mxCell>
        <mxCell id="dq-Q5Z8Co1_moTkSFwci-136" value="+ premios" style="text;html=1;strokeColor=none;fillColor=none;align=left;verticalAlign=middle;spacingLeft=4;spacingRight=4;overflow=hidden;rotatable=0;points=[[0,0.5],[1,0.5]];portConstraint=eastwest;whiteSpace=wrap;" vertex="1" parent="dq-Q5Z8Co1_moTkSFwci-90">
          <mxGeometry y="170" width="140" height="20" as="geometry" />
        </mxCell>
        <mxCell id="dq-Q5Z8Co1_moTkSFwci-152" value="+ costo" style="text;html=1;strokeColor=none;fillColor=none;align=left;verticalAlign=middle;spacingLeft=4;spacingRight=4;overflow=hidden;rotatable=0;points=[[0,0.5],[1,0.5]];portConstraint=eastwest;whiteSpace=wrap;" vertex="1" parent="dq-Q5Z8Co1_moTkSFwci-90">
          <mxGeometry y="190" width="140" height="20" as="geometry" />
        </mxCell>
        <mxCell id="dq-Q5Z8Co1_moTkSFwci-92" value="" style="line;strokeWidth=1;fillColor=none;align=left;verticalAlign=middle;spacingTop=-1;spacingLeft=3;spacingRight=3;rotatable=0;labelPosition=right;points=[];portConstraint=eastwest;" vertex="1" parent="dq-Q5Z8Co1_moTkSFwci-90">
          <mxGeometry y="210" width="140" height="8" as="geometry" />
        </mxCell>
        <mxCell id="dq-Q5Z8Co1_moTkSFwci-93" value="+ gestionar_etapa()" style="text;html=1;strokeColor=none;fillColor=none;align=left;verticalAlign=middle;spacingLeft=4;spacingRight=4;overflow=hidden;rotatable=0;points=[[0,0.5],[1,0.5]];portConstraint=eastwest;whiteSpace=wrap;" vertex="1" parent="dq-Q5Z8Co1_moTkSFwci-90">
          <mxGeometry y="218" width="140" height="20" as="geometry" />
        </mxCell>
        <mxCell id="dq-Q5Z8Co1_moTkSFwci-99" value="Heat" style="swimlane;fontStyle=0;align=center;verticalAlign=top;childLayout=stackLayout;horizontal=1;startSize=30;horizontalStack=0;resizeParent=1;resizeParentMax=0;resizeLast=0;collapsible=0;marginBottom=0;html=1;whiteSpace=wrap;" vertex="1" parent="1">
          <mxGeometry x="896" y="701" width="140" height="198" as="geometry" />
        </mxCell>
        <mxCell id="dq-Q5Z8Co1_moTkSFwci-111" value="+ ID" style="text;html=1;strokeColor=none;fillColor=none;align=left;verticalAlign=middle;spacingLeft=4;spacingRight=4;overflow=hidden;rotatable=0;points=[[0,0.5],[1,0.5]];portConstraint=eastwest;whiteSpace=wrap;" vertex="1" parent="dq-Q5Z8Co1_moTkSFwci-99">
          <mxGeometry y="30" width="140" height="20" as="geometry" />
        </mxCell>
        <mxCell id="dq-Q5Z8Co1_moTkSFwci-112" value="+ nombre" style="text;html=1;strokeColor=none;fillColor=none;align=left;verticalAlign=middle;spacingLeft=4;spacingRight=4;overflow=hidden;rotatable=0;points=[[0,0.5],[1,0.5]];portConstraint=eastwest;whiteSpace=wrap;" vertex="1" parent="dq-Q5Z8Co1_moTkSFwci-99">
          <mxGeometry y="50" width="140" height="20" as="geometry" />
        </mxCell>
        <mxCell id="dq-Q5Z8Co1_moTkSFwci-100" value="+ tipo" style="text;html=1;strokeColor=none;fillColor=none;align=left;verticalAlign=middle;spacingLeft=4;spacingRight=4;overflow=hidden;rotatable=0;points=[[0,0.5],[1,0.5]];portConstraint=eastwest;whiteSpace=wrap;" vertex="1" parent="dq-Q5Z8Co1_moTkSFwci-99">
          <mxGeometry y="70" width="140" height="20" as="geometry" />
        </mxCell>
        <mxCell id="dq-Q5Z8Co1_moTkSFwci-103" value="+ ejercicio" style="text;html=1;strokeColor=none;fillColor=none;align=left;verticalAlign=middle;spacingLeft=4;spacingRight=4;overflow=hidden;rotatable=0;points=[[0,0.5],[1,0.5]];portConstraint=eastwest;whiteSpace=wrap;" vertex="1" parent="dq-Q5Z8Co1_moTkSFwci-99">
          <mxGeometry y="90" width="140" height="20" as="geometry" />
        </mxCell>
        <mxCell id="dq-Q5Z8Co1_moTkSFwci-104" value="+ parametro" style="text;html=1;strokeColor=none;fillColor=none;align=left;verticalAlign=middle;spacingLeft=4;spacingRight=4;overflow=hidden;rotatable=0;points=[[0,0.5],[1,0.5]];portConstraint=eastwest;whiteSpace=wrap;" vertex="1" parent="dq-Q5Z8Co1_moTkSFwci-99">
          <mxGeometry y="110" width="140" height="20" as="geometry" />
        </mxCell>
        <mxCell id="dq-Q5Z8Co1_moTkSFwci-149" value="+ costo" style="text;html=1;strokeColor=none;fillColor=none;align=left;verticalAlign=middle;spacingLeft=4;spacingRight=4;overflow=hidden;rotatable=0;points=[[0,0.5],[1,0.5]];portConstraint=eastwest;whiteSpace=wrap;" vertex="1" parent="dq-Q5Z8Co1_moTkSFwci-99">
          <mxGeometry y="130" width="140" height="20" as="geometry" />
        </mxCell>
        <mxCell id="dq-Q5Z8Co1_moTkSFwci-247" value="+ equipamiento" style="text;html=1;strokeColor=none;fillColor=none;align=left;verticalAlign=middle;spacingLeft=4;spacingRight=4;overflow=hidden;rotatable=0;points=[[0,0.5],[1,0.5]];portConstraint=eastwest;whiteSpace=wrap;" vertex="1" parent="dq-Q5Z8Co1_moTkSFwci-99">
          <mxGeometry y="150" width="140" height="20" as="geometry" />
        </mxCell>
        <mxCell id="dq-Q5Z8Co1_moTkSFwci-101" value="" style="line;strokeWidth=1;fillColor=none;align=left;verticalAlign=middle;spacingTop=-1;spacingLeft=3;spacingRight=3;rotatable=0;labelPosition=right;points=[];portConstraint=eastwest;" vertex="1" parent="dq-Q5Z8Co1_moTkSFwci-99">
          <mxGeometry y="170" width="140" height="8" as="geometry" />
        </mxCell>
        <mxCell id="dq-Q5Z8Co1_moTkSFwci-102" value="+" style="text;html=1;strokeColor=none;fillColor=none;align=left;verticalAlign=middle;spacingLeft=4;spacingRight=4;overflow=hidden;rotatable=0;points=[[0,0.5],[1,0.5]];portConstraint=eastwest;whiteSpace=wrap;" vertex="1" parent="dq-Q5Z8Co1_moTkSFwci-99">
          <mxGeometry y="178" width="140" height="20" as="geometry" />
        </mxCell>
        <mxCell id="dq-Q5Z8Co1_moTkSFwci-105" value="WOD" style="swimlane;fontStyle=0;align=center;verticalAlign=top;childLayout=stackLayout;horizontal=1;startSize=30;horizontalStack=0;resizeParent=1;resizeParentMax=0;resizeLast=0;collapsible=0;marginBottom=0;html=1;whiteSpace=wrap;" vertex="1" parent="1">
          <mxGeometry x="623" y="847" width="140" height="178" as="geometry" />
        </mxCell>
        <mxCell id="dq-Q5Z8Co1_moTkSFwci-121" value="+ ID" style="text;html=1;strokeColor=none;fillColor=none;align=left;verticalAlign=middle;spacingLeft=4;spacingRight=4;overflow=hidden;rotatable=0;points=[[0,0.5],[1,0.5]];portConstraint=eastwest;whiteSpace=wrap;" vertex="1" parent="dq-Q5Z8Co1_moTkSFwci-105">
          <mxGeometry y="30" width="140" height="20" as="geometry" />
        </mxCell>
        <mxCell id="dq-Q5Z8Co1_moTkSFwci-106" value="+ tipo" style="text;html=1;strokeColor=none;fillColor=none;align=left;verticalAlign=middle;spacingLeft=4;spacingRight=4;overflow=hidden;rotatable=0;points=[[0,0.5],[1,0.5]];portConstraint=eastwest;whiteSpace=wrap;" vertex="1" parent="dq-Q5Z8Co1_moTkSFwci-105">
          <mxGeometry y="50" width="140" height="20" as="geometry" />
        </mxCell>
        <mxCell id="dq-Q5Z8Co1_moTkSFwci-107" value="+ ejercicios" style="text;html=1;strokeColor=none;fillColor=none;align=left;verticalAlign=middle;spacingLeft=4;spacingRight=4;overflow=hidden;rotatable=0;points=[[0,0.5],[1,0.5]];portConstraint=eastwest;whiteSpace=wrap;" vertex="1" parent="dq-Q5Z8Co1_moTkSFwci-105">
          <mxGeometry y="70" width="140" height="20" as="geometry" />
        </mxCell>
        <mxCell id="dq-Q5Z8Co1_moTkSFwci-108" value="+ distancia" style="text;html=1;strokeColor=none;fillColor=none;align=left;verticalAlign=middle;spacingLeft=4;spacingRight=4;overflow=hidden;rotatable=0;points=[[0,0.5],[1,0.5]];portConstraint=eastwest;whiteSpace=wrap;" vertex="1" parent="dq-Q5Z8Co1_moTkSFwci-105">
          <mxGeometry y="90" width="140" height="20" as="geometry" />
        </mxCell>
        <mxCell id="dq-Q5Z8Co1_moTkSFwci-113" value="+ equipamiento" style="text;html=1;strokeColor=none;fillColor=none;align=left;verticalAlign=middle;spacingLeft=4;spacingRight=4;overflow=hidden;rotatable=0;points=[[0,0.5],[1,0.5]];portConstraint=eastwest;whiteSpace=wrap;" vertex="1" parent="dq-Q5Z8Co1_moTkSFwci-105">
          <mxGeometry y="110" width="140" height="20" as="geometry" />
        </mxCell>
        <mxCell id="dq-Q5Z8Co1_moTkSFwci-150" value="+ costo" style="text;html=1;strokeColor=none;fillColor=none;align=left;verticalAlign=middle;spacingLeft=4;spacingRight=4;overflow=hidden;rotatable=0;points=[[0,0.5],[1,0.5]];portConstraint=eastwest;whiteSpace=wrap;" vertex="1" parent="dq-Q5Z8Co1_moTkSFwci-105">
          <mxGeometry y="130" width="140" height="20" as="geometry" />
        </mxCell>
        <mxCell id="dq-Q5Z8Co1_moTkSFwci-109" value="" style="line;strokeWidth=1;fillColor=none;align=left;verticalAlign=middle;spacingTop=-1;spacingLeft=3;spacingRight=3;rotatable=0;labelPosition=right;points=[];portConstraint=eastwest;" vertex="1" parent="dq-Q5Z8Co1_moTkSFwci-105">
          <mxGeometry y="150" width="140" height="8" as="geometry" />
        </mxCell>
        <mxCell id="dq-Q5Z8Co1_moTkSFwci-110" value="+" style="text;html=1;strokeColor=none;fillColor=none;align=left;verticalAlign=middle;spacingLeft=4;spacingRight=4;overflow=hidden;rotatable=0;points=[[0,0.5],[1,0.5]];portConstraint=eastwest;whiteSpace=wrap;" vertex="1" parent="dq-Q5Z8Co1_moTkSFwci-105">
          <mxGeometry y="158" width="140" height="20" as="geometry" />
        </mxCell>
        <mxCell id="dq-Q5Z8Co1_moTkSFwci-115" value="Equipo" style="swimlane;fontStyle=0;align=center;verticalAlign=top;childLayout=stackLayout;horizontal=1;startSize=30;horizontalStack=0;resizeParent=1;resizeParentMax=0;resizeLast=0;collapsible=0;marginBottom=0;html=1;whiteSpace=wrap;" vertex="1" parent="1">
          <mxGeometry x="886" y="902" width="140" height="138" as="geometry" />
        </mxCell>
        <mxCell id="dq-Q5Z8Co1_moTkSFwci-116" value="+ ID" style="text;html=1;strokeColor=none;fillColor=none;align=left;verticalAlign=middle;spacingLeft=4;spacingRight=4;overflow=hidden;rotatable=0;points=[[0,0.5],[1,0.5]];portConstraint=eastwest;whiteSpace=wrap;" vertex="1" parent="dq-Q5Z8Co1_moTkSFwci-115">
          <mxGeometry y="30" width="140" height="20" as="geometry" />
        </mxCell>
        <mxCell id="dq-Q5Z8Co1_moTkSFwci-117" value="+ nombre" style="text;html=1;strokeColor=none;fillColor=none;align=left;verticalAlign=middle;spacingLeft=4;spacingRight=4;overflow=hidden;rotatable=0;points=[[0,0.5],[1,0.5]];portConstraint=eastwest;whiteSpace=wrap;" vertex="1" parent="dq-Q5Z8Co1_moTkSFwci-115">
          <mxGeometry y="50" width="140" height="20" as="geometry" />
        </mxCell>
        <mxCell id="dq-Q5Z8Co1_moTkSFwci-118" value="+ tipo" style="text;html=1;strokeColor=none;fillColor=none;align=left;verticalAlign=middle;spacingLeft=4;spacingRight=4;overflow=hidden;rotatable=0;points=[[0,0.5],[1,0.5]];portConstraint=eastwest;whiteSpace=wrap;" vertex="1" parent="dq-Q5Z8Co1_moTkSFwci-115">
          <mxGeometry y="70" width="140" height="20" as="geometry" />
        </mxCell>
        <mxCell id="dq-Q5Z8Co1_moTkSFwci-122" value="+ peso" style="text;html=1;strokeColor=none;fillColor=none;align=left;verticalAlign=middle;spacingLeft=4;spacingRight=4;overflow=hidden;rotatable=0;points=[[0,0.5],[1,0.5]];portConstraint=eastwest;whiteSpace=wrap;" vertex="1" parent="dq-Q5Z8Co1_moTkSFwci-115">
          <mxGeometry y="90" width="140" height="20" as="geometry" />
        </mxCell>
        <mxCell id="dq-Q5Z8Co1_moTkSFwci-119" value="" style="line;strokeWidth=1;fillColor=none;align=left;verticalAlign=middle;spacingTop=-1;spacingLeft=3;spacingRight=3;rotatable=0;labelPosition=right;points=[];portConstraint=eastwest;" vertex="1" parent="dq-Q5Z8Co1_moTkSFwci-115">
          <mxGeometry y="110" width="140" height="8" as="geometry" />
        </mxCell>
        <mxCell id="dq-Q5Z8Co1_moTkSFwci-120" value="+" style="text;html=1;strokeColor=none;fillColor=none;align=left;verticalAlign=middle;spacingLeft=4;spacingRight=4;overflow=hidden;rotatable=0;points=[[0,0.5],[1,0.5]];portConstraint=eastwest;whiteSpace=wrap;" vertex="1" parent="dq-Q5Z8Co1_moTkSFwci-115">
          <mxGeometry y="118" width="140" height="20" as="geometry" />
        </mxCell>
        <mxCell id="dq-Q5Z8Co1_moTkSFwci-252" style="rounded=0;orthogonalLoop=1;jettySize=auto;html=1;entryX=0.255;entryY=1.05;entryDx=0;entryDy=0;endArrow=none;endFill=0;entryPerimeter=0;" edge="1" parent="1" source="dq-Q5Z8Co1_moTkSFwci-129" target="dq-Q5Z8Co1_moTkSFwci-93">
          <mxGeometry relative="1" as="geometry" />
        </mxCell>
        <mxCell id="dq-Q5Z8Co1_moTkSFwci-129" value="Etapa" style="swimlane;fontStyle=0;align=center;verticalAlign=top;childLayout=stackLayout;horizontal=1;startSize=30;horizontalStack=0;resizeParent=1;resizeParentMax=0;resizeLast=0;collapsible=0;marginBottom=0;html=1;whiteSpace=wrap;" vertex="1" parent="1">
          <mxGeometry x="410" y="860" width="140" height="158" as="geometry" />
        </mxCell>
        <mxCell id="dq-Q5Z8Co1_moTkSFwci-130" value="+ ID" style="text;html=1;strokeColor=none;fillColor=none;align=left;verticalAlign=middle;spacingLeft=4;spacingRight=4;overflow=hidden;rotatable=0;points=[[0,0.5],[1,0.5]];portConstraint=eastwest;whiteSpace=wrap;" vertex="1" parent="dq-Q5Z8Co1_moTkSFwci-129">
          <mxGeometry y="30" width="140" height="20" as="geometry" />
        </mxCell>
        <mxCell id="dq-Q5Z8Co1_moTkSFwci-257" value="+ modalidad" style="text;html=1;strokeColor=none;fillColor=none;align=left;verticalAlign=middle;spacingLeft=4;spacingRight=4;overflow=hidden;rotatable=0;points=[[0,0.5],[1,0.5]];portConstraint=eastwest;whiteSpace=wrap;" vertex="1" parent="dq-Q5Z8Co1_moTkSFwci-129">
          <mxGeometry y="50" width="140" height="20" as="geometry" />
        </mxCell>
        <mxCell id="dq-Q5Z8Co1_moTkSFwci-133" value="+ tipo" style="text;html=1;strokeColor=none;fillColor=none;align=left;verticalAlign=middle;spacingLeft=4;spacingRight=4;overflow=hidden;rotatable=0;points=[[0,0.5],[1,0.5]];portConstraint=eastwest;whiteSpace=wrap;" vertex="1" parent="dq-Q5Z8Co1_moTkSFwci-129">
          <mxGeometry y="70" width="140" height="20" as="geometry" />
        </mxCell>
        <mxCell id="dq-Q5Z8Co1_moTkSFwci-134" value="+ fecha_inicio" style="text;html=1;strokeColor=none;fillColor=none;align=left;verticalAlign=middle;spacingLeft=4;spacingRight=4;overflow=hidden;rotatable=0;points=[[0,0.5],[1,0.5]];portConstraint=eastwest;whiteSpace=wrap;" vertex="1" parent="dq-Q5Z8Co1_moTkSFwci-129">
          <mxGeometry y="90" width="140" height="20" as="geometry" />
        </mxCell>
        <mxCell id="dq-Q5Z8Co1_moTkSFwci-135" value="+ fecha_fin" style="text;html=1;strokeColor=none;fillColor=none;align=left;verticalAlign=middle;spacingLeft=4;spacingRight=4;overflow=hidden;rotatable=0;points=[[0,0.5],[1,0.5]];portConstraint=eastwest;whiteSpace=wrap;" vertex="1" parent="dq-Q5Z8Co1_moTkSFwci-129">
          <mxGeometry y="110" width="140" height="20" as="geometry" />
        </mxCell>
        <mxCell id="dq-Q5Z8Co1_moTkSFwci-131" value="" style="line;strokeWidth=1;fillColor=none;align=left;verticalAlign=middle;spacingTop=-1;spacingLeft=3;spacingRight=3;rotatable=0;labelPosition=right;points=[];portConstraint=eastwest;" vertex="1" parent="dq-Q5Z8Co1_moTkSFwci-129">
          <mxGeometry y="130" width="140" height="8" as="geometry" />
        </mxCell>
        <mxCell id="dq-Q5Z8Co1_moTkSFwci-132" value="+" style="text;html=1;strokeColor=none;fillColor=none;align=left;verticalAlign=middle;spacingLeft=4;spacingRight=4;overflow=hidden;rotatable=0;points=[[0,0.5],[1,0.5]];portConstraint=eastwest;whiteSpace=wrap;" vertex="1" parent="dq-Q5Z8Co1_moTkSFwci-129">
          <mxGeometry y="138" width="140" height="20" as="geometry" />
        </mxCell>
        <mxCell id="dq-Q5Z8Co1_moTkSFwci-251" style="rounded=0;orthogonalLoop=1;jettySize=auto;html=1;entryX=0;entryY=0.5;entryDx=0;entryDy=0;endArrow=none;endFill=0;" edge="1" parent="1" source="dq-Q5Z8Co1_moTkSFwci-141" target="dq-Q5Z8Co1_moTkSFwci-138">
          <mxGeometry relative="1" as="geometry" />
        </mxCell>
        <mxCell id="dq-Q5Z8Co1_moTkSFwci-141" value="Puntuacion" style="swimlane;fontStyle=0;align=center;verticalAlign=top;childLayout=stackLayout;horizontal=1;startSize=30;horizontalStack=0;resizeParent=1;resizeParentMax=0;resizeLast=0;collapsible=0;marginBottom=0;html=1;whiteSpace=wrap;" vertex="1" parent="1">
          <mxGeometry x="100" y="810" width="140" height="158" as="geometry" />
        </mxCell>
        <mxCell id="dq-Q5Z8Co1_moTkSFwci-142" value="+ repeticiones" style="text;html=1;strokeColor=none;fillColor=none;align=left;verticalAlign=middle;spacingLeft=4;spacingRight=4;overflow=hidden;rotatable=0;points=[[0,0.5],[1,0.5]];portConstraint=eastwest;whiteSpace=wrap;" vertex="1" parent="dq-Q5Z8Co1_moTkSFwci-141">
          <mxGeometry y="30" width="140" height="20" as="geometry" />
        </mxCell>
        <mxCell id="dq-Q5Z8Co1_moTkSFwci-145" value="+ tiempo" style="text;html=1;strokeColor=none;fillColor=none;align=left;verticalAlign=middle;spacingLeft=4;spacingRight=4;overflow=hidden;rotatable=0;points=[[0,0.5],[1,0.5]];portConstraint=eastwest;whiteSpace=wrap;" vertex="1" parent="dq-Q5Z8Co1_moTkSFwci-141">
          <mxGeometry y="50" width="140" height="20" as="geometry" />
        </mxCell>
        <mxCell id="dq-Q5Z8Co1_moTkSFwci-146" value="+ peso" style="text;html=1;strokeColor=none;fillColor=none;align=left;verticalAlign=middle;spacingLeft=4;spacingRight=4;overflow=hidden;rotatable=0;points=[[0,0.5],[1,0.5]];portConstraint=eastwest;whiteSpace=wrap;" vertex="1" parent="dq-Q5Z8Co1_moTkSFwci-141">
          <mxGeometry y="70" width="140" height="20" as="geometry" />
        </mxCell>
        <mxCell id="dq-Q5Z8Co1_moTkSFwci-147" value="+ puntaje" style="text;html=1;strokeColor=none;fillColor=none;align=left;verticalAlign=middle;spacingLeft=4;spacingRight=4;overflow=hidden;rotatable=0;points=[[0,0.5],[1,0.5]];portConstraint=eastwest;whiteSpace=wrap;" vertex="1" parent="dq-Q5Z8Co1_moTkSFwci-141">
          <mxGeometry y="90" width="140" height="20" as="geometry" />
        </mxCell>
        <mxCell id="dq-Q5Z8Co1_moTkSFwci-143" value="" style="line;strokeWidth=1;fillColor=none;align=left;verticalAlign=middle;spacingTop=-1;spacingLeft=3;spacingRight=3;rotatable=0;labelPosition=right;points=[];portConstraint=eastwest;" vertex="1" parent="dq-Q5Z8Co1_moTkSFwci-141">
          <mxGeometry y="110" width="140" height="8" as="geometry" />
        </mxCell>
        <mxCell id="dq-Q5Z8Co1_moTkSFwci-144" value="+ calcular_puntos()" style="text;html=1;strokeColor=none;fillColor=none;align=left;verticalAlign=middle;spacingLeft=4;spacingRight=4;overflow=hidden;rotatable=0;points=[[0,0.5],[1,0.5]];portConstraint=eastwest;whiteSpace=wrap;" vertex="1" parent="dq-Q5Z8Co1_moTkSFwci-141">
          <mxGeometry y="118" width="140" height="20" as="geometry" />
        </mxCell>
        <mxCell id="dq-Q5Z8Co1_moTkSFwci-148" value="+&amp;nbsp;" style="text;html=1;strokeColor=none;fillColor=none;align=left;verticalAlign=middle;spacingLeft=4;spacingRight=4;overflow=hidden;rotatable=0;points=[[0,0.5],[1,0.5]];portConstraint=eastwest;whiteSpace=wrap;" vertex="1" parent="dq-Q5Z8Co1_moTkSFwci-141">
          <mxGeometry y="138" width="140" height="20" as="geometry" />
        </mxCell>
        <mxCell id="dq-Q5Z8Co1_moTkSFwci-158" value="Inscripcion" style="swimlane;fontStyle=0;align=center;verticalAlign=top;childLayout=stackLayout;horizontal=1;startSize=30;horizontalStack=0;resizeParent=1;resizeParentMax=0;resizeLast=0;collapsible=0;marginBottom=0;html=1;whiteSpace=wrap;" vertex="1" parent="1">
          <mxGeometry x="684" y="570" width="160" height="98" as="geometry" />
        </mxCell>
        <mxCell id="dq-Q5Z8Co1_moTkSFwci-159" value="+ costo" style="text;html=1;strokeColor=none;fillColor=none;align=left;verticalAlign=middle;spacingLeft=4;spacingRight=4;overflow=hidden;rotatable=0;points=[[0,0.5],[1,0.5]];portConstraint=eastwest;whiteSpace=wrap;" vertex="1" parent="dq-Q5Z8Co1_moTkSFwci-158">
          <mxGeometry y="30" width="160" height="20" as="geometry" />
        </mxCell>
        <mxCell id="dq-Q5Z8Co1_moTkSFwci-160" value="" style="line;strokeWidth=1;fillColor=none;align=left;verticalAlign=middle;spacingTop=-1;spacingLeft=3;spacingRight=3;rotatable=0;labelPosition=right;points=[];portConstraint=eastwest;" vertex="1" parent="dq-Q5Z8Co1_moTkSFwci-158">
          <mxGeometry y="50" width="160" height="8" as="geometry" />
        </mxCell>
        <mxCell id="dq-Q5Z8Co1_moTkSFwci-33" value="+ controlar_datos()" style="text;html=1;strokeColor=none;fillColor=none;align=left;verticalAlign=middle;spacingLeft=4;spacingRight=4;overflow=hidden;rotatable=0;points=[[0,0.5],[1,0.5]];portConstraint=eastwest;whiteSpace=wrap;" vertex="1" parent="dq-Q5Z8Co1_moTkSFwci-158">
          <mxGeometry y="58" width="160" height="20" as="geometry" />
        </mxCell>
        <mxCell id="dq-Q5Z8Co1_moTkSFwci-161" value="+ firmar_concentimiento()" style="text;html=1;strokeColor=none;fillColor=none;align=left;verticalAlign=middle;spacingLeft=4;spacingRight=4;overflow=hidden;rotatable=0;points=[[0,0.5],[1,0.5]];portConstraint=eastwest;whiteSpace=wrap;" vertex="1" parent="dq-Q5Z8Co1_moTkSFwci-158">
          <mxGeometry y="78" width="160" height="20" as="geometry" />
        </mxCell>
        <mxCell id="dq-Q5Z8Co1_moTkSFwci-213" style="edgeStyle=orthogonalEdgeStyle;rounded=0;orthogonalLoop=1;jettySize=auto;html=1;entryX=0.5;entryY=1;entryDx=0;entryDy=0;endArrow=block;endFill=0;" edge="1" parent="1" source="dq-Q5Z8Co1_moTkSFwci-162" target="dq-Q5Z8Co1_moTkSFwci-205">
          <mxGeometry relative="1" as="geometry" />
        </mxCell>
        <mxCell id="dq-Q5Z8Co1_moTkSFwci-219" value="n" style="edgeLabel;html=1;align=center;verticalAlign=middle;resizable=0;points=[];" vertex="1" connectable="0" parent="dq-Q5Z8Co1_moTkSFwci-213">
          <mxGeometry x="-0.8116" y="-1" relative="1" as="geometry">
            <mxPoint as="offset" />
          </mxGeometry>
        </mxCell>
        <mxCell id="dq-Q5Z8Co1_moTkSFwci-162" value="Servicio_emergencia" style="swimlane;fontStyle=0;align=center;verticalAlign=top;childLayout=stackLayout;horizontal=1;startSize=30;horizontalStack=0;resizeParent=1;resizeParentMax=0;resizeLast=0;collapsible=0;marginBottom=0;html=1;whiteSpace=wrap;" vertex="1" parent="1">
          <mxGeometry x="-270" y="798" width="140" height="98" as="geometry" />
        </mxCell>
        <mxCell id="dq-Q5Z8Co1_moTkSFwci-206" value="+" style="text;html=1;strokeColor=none;fillColor=none;align=left;verticalAlign=middle;spacingLeft=4;spacingRight=4;overflow=hidden;rotatable=0;points=[[0,0.5],[1,0.5]];portConstraint=eastwest;whiteSpace=wrap;" vertex="1" parent="dq-Q5Z8Co1_moTkSFwci-162">
          <mxGeometry y="30" width="140" height="20" as="geometry" />
        </mxCell>
        <mxCell id="dq-Q5Z8Co1_moTkSFwci-164" value="" style="line;strokeWidth=1;fillColor=none;align=left;verticalAlign=middle;spacingTop=-1;spacingLeft=3;spacingRight=3;rotatable=0;labelPosition=right;points=[];portConstraint=eastwest;" vertex="1" parent="dq-Q5Z8Co1_moTkSFwci-162">
          <mxGeometry y="50" width="140" height="8" as="geometry" />
        </mxCell>
        <mxCell id="dq-Q5Z8Co1_moTkSFwci-165" value="+ brindar_asistencia()" style="text;html=1;strokeColor=none;fillColor=none;align=left;verticalAlign=middle;spacingLeft=4;spacingRight=4;overflow=hidden;rotatable=0;points=[[0,0.5],[1,0.5]];portConstraint=eastwest;whiteSpace=wrap;" vertex="1" parent="dq-Q5Z8Co1_moTkSFwci-162">
          <mxGeometry y="58" width="140" height="20" as="geometry" />
        </mxCell>
        <mxCell id="dq-Q5Z8Co1_moTkSFwci-169" value="+ evacuar_persona()" style="text;html=1;strokeColor=none;fillColor=none;align=left;verticalAlign=middle;spacingLeft=4;spacingRight=4;overflow=hidden;rotatable=0;points=[[0,0.5],[1,0.5]];portConstraint=eastwest;whiteSpace=wrap;" vertex="1" parent="dq-Q5Z8Co1_moTkSFwci-162">
          <mxGeometry y="78" width="140" height="20" as="geometry" />
        </mxCell>
        <mxCell id="dq-Q5Z8Co1_moTkSFwci-214" style="edgeStyle=orthogonalEdgeStyle;rounded=0;orthogonalLoop=1;jettySize=auto;html=1;entryX=0.75;entryY=1;entryDx=0;entryDy=0;endArrow=block;endFill=0;" edge="1" parent="1" source="dq-Q5Z8Co1_moTkSFwci-170" target="dq-Q5Z8Co1_moTkSFwci-205">
          <mxGeometry relative="1" as="geometry">
            <mxPoint x="-260" y="688" as="targetPoint" />
            <Array as="points">
              <mxPoint x="-30" y="728" />
              <mxPoint x="-255" y="728" />
            </Array>
          </mxGeometry>
        </mxCell>
        <mxCell id="dq-Q5Z8Co1_moTkSFwci-218" value="1" style="edgeLabel;html=1;align=center;verticalAlign=middle;resizable=0;points=[];" vertex="1" connectable="0" parent="dq-Q5Z8Co1_moTkSFwci-214">
          <mxGeometry x="0.7994" y="-2" relative="1" as="geometry">
            <mxPoint as="offset" />
          </mxGeometry>
        </mxCell>
        <mxCell id="dq-Q5Z8Co1_moTkSFwci-220" value="n" style="edgeLabel;html=1;align=center;verticalAlign=middle;resizable=0;points=[];" vertex="1" connectable="0" parent="dq-Q5Z8Co1_moTkSFwci-214">
          <mxGeometry x="-0.8931" relative="1" as="geometry">
            <mxPoint as="offset" />
          </mxGeometry>
        </mxCell>
        <mxCell id="dq-Q5Z8Co1_moTkSFwci-170" value="Proveedores" style="swimlane;fontStyle=0;align=center;verticalAlign=top;childLayout=stackLayout;horizontal=1;startSize=30;horizontalStack=0;resizeParent=1;resizeParentMax=0;resizeLast=0;collapsible=0;marginBottom=0;html=1;whiteSpace=wrap;" vertex="1" parent="1">
          <mxGeometry x="-100" y="798" width="140" height="138" as="geometry" />
        </mxCell>
        <mxCell id="dq-Q5Z8Co1_moTkSFwci-176" value="+ servicio" style="text;html=1;strokeColor=none;fillColor=none;align=left;verticalAlign=middle;spacingLeft=4;spacingRight=4;overflow=hidden;rotatable=0;points=[[0,0.5],[1,0.5]];portConstraint=eastwest;whiteSpace=wrap;" vertex="1" parent="dq-Q5Z8Co1_moTkSFwci-170">
          <mxGeometry y="30" width="140" height="20" as="geometry" />
        </mxCell>
        <mxCell id="dq-Q5Z8Co1_moTkSFwci-179" value="+ lugar_stand" style="text;html=1;strokeColor=none;fillColor=none;align=left;verticalAlign=middle;spacingLeft=4;spacingRight=4;overflow=hidden;rotatable=0;points=[[0,0.5],[1,0.5]];portConstraint=eastwest;whiteSpace=wrap;" vertex="1" parent="dq-Q5Z8Co1_moTkSFwci-170">
          <mxGeometry y="50" width="140" height="20" as="geometry" />
        </mxCell>
        <mxCell id="dq-Q5Z8Co1_moTkSFwci-172" value="" style="line;strokeWidth=1;fillColor=none;align=left;verticalAlign=middle;spacingTop=-1;spacingLeft=3;spacingRight=3;rotatable=0;labelPosition=right;points=[];portConstraint=eastwest;" vertex="1" parent="dq-Q5Z8Co1_moTkSFwci-170">
          <mxGeometry y="70" width="140" height="8" as="geometry" />
        </mxCell>
        <mxCell id="dq-Q5Z8Co1_moTkSFwci-173" value="+ ofrecer_servicio()" style="text;html=1;strokeColor=none;fillColor=none;align=left;verticalAlign=middle;spacingLeft=4;spacingRight=4;overflow=hidden;rotatable=0;points=[[0,0.5],[1,0.5]];portConstraint=eastwest;whiteSpace=wrap;" vertex="1" parent="dq-Q5Z8Co1_moTkSFwci-170">
          <mxGeometry y="78" width="140" height="20" as="geometry" />
        </mxCell>
        <mxCell id="dq-Q5Z8Co1_moTkSFwci-177" value="+ vender_producto()" style="text;html=1;strokeColor=none;fillColor=none;align=left;verticalAlign=middle;spacingLeft=4;spacingRight=4;overflow=hidden;rotatable=0;points=[[0,0.5],[1,0.5]];portConstraint=eastwest;whiteSpace=wrap;" vertex="1" parent="dq-Q5Z8Co1_moTkSFwci-170">
          <mxGeometry y="98" width="140" height="20" as="geometry" />
        </mxCell>
        <mxCell id="dq-Q5Z8Co1_moTkSFwci-178" value="+ pagar_fee" style="text;html=1;strokeColor=none;fillColor=none;align=left;verticalAlign=middle;spacingLeft=4;spacingRight=4;overflow=hidden;rotatable=0;points=[[0,0.5],[1,0.5]];portConstraint=eastwest;whiteSpace=wrap;" vertex="1" parent="dq-Q5Z8Co1_moTkSFwci-170">
          <mxGeometry y="118" width="140" height="20" as="geometry" />
        </mxCell>
        <mxCell id="dq-Q5Z8Co1_moTkSFwci-212" style="edgeStyle=orthogonalEdgeStyle;rounded=0;orthogonalLoop=1;jettySize=auto;html=1;entryX=0.5;entryY=1;entryDx=0;entryDy=0;endArrow=block;endFill=0;" edge="1" parent="1" source="dq-Q5Z8Co1_moTkSFwci-180" target="dq-Q5Z8Co1_moTkSFwci-205">
          <mxGeometry relative="1" as="geometry" />
        </mxCell>
        <mxCell id="dq-Q5Z8Co1_moTkSFwci-216" value="n" style="edgeLabel;html=1;align=center;verticalAlign=middle;resizable=0;points=[];" vertex="1" connectable="0" parent="dq-Q5Z8Co1_moTkSFwci-212">
          <mxGeometry x="-0.7848" y="-2" relative="1" as="geometry">
            <mxPoint as="offset" />
          </mxGeometry>
        </mxCell>
        <mxCell id="dq-Q5Z8Co1_moTkSFwci-217" value="1" style="edgeLabel;html=1;align=center;verticalAlign=middle;resizable=0;points=[];" vertex="1" connectable="0" parent="dq-Q5Z8Co1_moTkSFwci-212">
          <mxGeometry x="0.7829" relative="1" as="geometry">
            <mxPoint as="offset" />
          </mxGeometry>
        </mxCell>
        <mxCell id="dq-Q5Z8Co1_moTkSFwci-180" value="Seccion_multimedia" style="swimlane;fontStyle=0;align=center;verticalAlign=top;childLayout=stackLayout;horizontal=1;startSize=30;horizontalStack=0;resizeParent=1;resizeParentMax=0;resizeLast=0;collapsible=0;marginBottom=0;html=1;whiteSpace=wrap;" vertex="1" parent="1">
          <mxGeometry x="-440" y="798" width="140" height="98" as="geometry" />
        </mxCell>
        <mxCell id="dq-Q5Z8Co1_moTkSFwci-187" value="+ multimedia" style="text;html=1;strokeColor=none;fillColor=none;align=left;verticalAlign=middle;spacingLeft=4;spacingRight=4;overflow=hidden;rotatable=0;points=[[0,0.5],[1,0.5]];portConstraint=eastwest;whiteSpace=wrap;" vertex="1" parent="dq-Q5Z8Co1_moTkSFwci-180">
          <mxGeometry y="30" width="140" height="20" as="geometry" />
        </mxCell>
        <mxCell id="dq-Q5Z8Co1_moTkSFwci-183" value="+ fotografo" style="text;html=1;strokeColor=none;fillColor=none;align=left;verticalAlign=middle;spacingLeft=4;spacingRight=4;overflow=hidden;rotatable=0;points=[[0,0.5],[1,0.5]];portConstraint=eastwest;whiteSpace=wrap;" vertex="1" parent="dq-Q5Z8Co1_moTkSFwci-180">
          <mxGeometry y="50" width="140" height="20" as="geometry" />
        </mxCell>
        <mxCell id="dq-Q5Z8Co1_moTkSFwci-184" value="" style="line;strokeWidth=1;fillColor=none;align=left;verticalAlign=middle;spacingTop=-1;spacingLeft=3;spacingRight=3;rotatable=0;labelPosition=right;points=[];portConstraint=eastwest;" vertex="1" parent="dq-Q5Z8Co1_moTkSFwci-180">
          <mxGeometry y="70" width="140" height="8" as="geometry" />
        </mxCell>
        <mxCell id="dq-Q5Z8Co1_moTkSFwci-185" value="+ subir_fotos()" style="text;html=1;strokeColor=none;fillColor=none;align=left;verticalAlign=middle;spacingLeft=4;spacingRight=4;overflow=hidden;rotatable=0;points=[[0,0.5],[1,0.5]];portConstraint=eastwest;whiteSpace=wrap;" vertex="1" parent="dq-Q5Z8Co1_moTkSFwci-180">
          <mxGeometry y="78" width="140" height="20" as="geometry" />
        </mxCell>
        <mxCell id="dq-Q5Z8Co1_moTkSFwci-211" value="1" style="edgeStyle=orthogonalEdgeStyle;rounded=0;orthogonalLoop=1;jettySize=auto;html=1;entryX=0.25;entryY=1;entryDx=0;entryDy=0;endArrow=block;endFill=0;" edge="1" parent="1" source="dq-Q5Z8Co1_moTkSFwci-188" target="dq-Q5Z8Co1_moTkSFwci-205">
          <mxGeometry x="0.8209" relative="1" as="geometry">
            <mxPoint x="-460" y="648" as="targetPoint" />
            <Array as="points">
              <mxPoint x="-540" y="728" />
              <mxPoint x="-325" y="728" />
            </Array>
            <mxPoint as="offset" />
          </mxGeometry>
        </mxCell>
        <mxCell id="dq-Q5Z8Co1_moTkSFwci-215" value="n" style="edgeLabel;html=1;align=center;verticalAlign=middle;resizable=0;points=[];" vertex="1" connectable="0" parent="dq-Q5Z8Co1_moTkSFwci-211">
          <mxGeometry x="-0.8831" y="-2" relative="1" as="geometry">
            <mxPoint as="offset" />
          </mxGeometry>
        </mxCell>
        <mxCell id="dq-Q5Z8Co1_moTkSFwci-188" value="Fotografo" style="swimlane;fontStyle=0;align=center;verticalAlign=top;childLayout=stackLayout;horizontal=1;startSize=30;horizontalStack=0;resizeParent=1;resizeParentMax=0;resizeLast=0;collapsible=0;marginBottom=0;html=1;whiteSpace=wrap;" vertex="1" parent="1">
          <mxGeometry x="-610" y="798" width="140" height="138" as="geometry" />
        </mxCell>
        <mxCell id="dq-Q5Z8Co1_moTkSFwci-193" value="+ fotos" style="text;html=1;strokeColor=none;fillColor=none;align=left;verticalAlign=middle;spacingLeft=4;spacingRight=4;overflow=hidden;rotatable=0;points=[[0,0.5],[1,0.5]];portConstraint=eastwest;whiteSpace=wrap;" vertex="1" parent="dq-Q5Z8Co1_moTkSFwci-188">
          <mxGeometry y="30" width="140" height="20" as="geometry" />
        </mxCell>
        <mxCell id="dq-Q5Z8Co1_moTkSFwci-194" value="+ ganancias" style="text;html=1;strokeColor=none;fillColor=none;align=left;verticalAlign=middle;spacingLeft=4;spacingRight=4;overflow=hidden;rotatable=0;points=[[0,0.5],[1,0.5]];portConstraint=eastwest;whiteSpace=wrap;" vertex="1" parent="dq-Q5Z8Co1_moTkSFwci-188">
          <mxGeometry y="50" width="140" height="20" as="geometry" />
        </mxCell>
        <mxCell id="dq-Q5Z8Co1_moTkSFwci-190" value="" style="line;strokeWidth=1;fillColor=none;align=left;verticalAlign=middle;spacingTop=-1;spacingLeft=3;spacingRight=3;rotatable=0;labelPosition=right;points=[];portConstraint=eastwest;" vertex="1" parent="dq-Q5Z8Co1_moTkSFwci-188">
          <mxGeometry y="70" width="140" height="8" as="geometry" />
        </mxCell>
        <mxCell id="dq-Q5Z8Co1_moTkSFwci-191" value="+ tomar_fotos()" style="text;html=1;strokeColor=none;fillColor=none;align=left;verticalAlign=middle;spacingLeft=4;spacingRight=4;overflow=hidden;rotatable=0;points=[[0,0.5],[1,0.5]];portConstraint=eastwest;whiteSpace=wrap;" vertex="1" parent="dq-Q5Z8Co1_moTkSFwci-188">
          <mxGeometry y="78" width="140" height="20" as="geometry" />
        </mxCell>
        <mxCell id="dq-Q5Z8Co1_moTkSFwci-195" value="+ vender_fotos()" style="text;html=1;strokeColor=none;fillColor=none;align=left;verticalAlign=middle;spacingLeft=4;spacingRight=4;overflow=hidden;rotatable=0;points=[[0,0.5],[1,0.5]];portConstraint=eastwest;whiteSpace=wrap;" vertex="1" parent="dq-Q5Z8Co1_moTkSFwci-188">
          <mxGeometry y="98" width="140" height="20" as="geometry" />
        </mxCell>
        <mxCell id="dq-Q5Z8Co1_moTkSFwci-196" value="+ pagar_comision()" style="text;html=1;strokeColor=none;fillColor=none;align=left;verticalAlign=middle;spacingLeft=4;spacingRight=4;overflow=hidden;rotatable=0;points=[[0,0.5],[1,0.5]];portConstraint=eastwest;whiteSpace=wrap;" vertex="1" parent="dq-Q5Z8Co1_moTkSFwci-188">
          <mxGeometry y="118" width="140" height="20" as="geometry" />
        </mxCell>
        <mxCell id="dq-Q5Z8Co1_moTkSFwci-197" value="Pagos" style="swimlane;fontStyle=0;align=center;verticalAlign=top;childLayout=stackLayout;horizontal=1;startSize=30;horizontalStack=0;resizeParent=1;resizeParentMax=0;resizeLast=0;collapsible=0;marginBottom=0;html=1;whiteSpace=wrap;" vertex="1" parent="1">
          <mxGeometry x="35" y="400" width="140" height="158" as="geometry" />
        </mxCell>
        <mxCell id="dq-Q5Z8Co1_moTkSFwci-198" value="+ ID" style="text;html=1;strokeColor=none;fillColor=none;align=left;verticalAlign=middle;spacingLeft=4;spacingRight=4;overflow=hidden;rotatable=0;points=[[0,0.5],[1,0.5]];portConstraint=eastwest;whiteSpace=wrap;" vertex="1" parent="dq-Q5Z8Co1_moTkSFwci-197">
          <mxGeometry y="30" width="140" height="20" as="geometry" />
        </mxCell>
        <mxCell id="dq-Q5Z8Co1_moTkSFwci-201" value="+ tipo" style="text;html=1;strokeColor=none;fillColor=none;align=left;verticalAlign=middle;spacingLeft=4;spacingRight=4;overflow=hidden;rotatable=0;points=[[0,0.5],[1,0.5]];portConstraint=eastwest;whiteSpace=wrap;" vertex="1" parent="dq-Q5Z8Co1_moTkSFwci-197">
          <mxGeometry y="50" width="140" height="20" as="geometry" />
        </mxCell>
        <mxCell id="dq-Q5Z8Co1_moTkSFwci-202" value="+ cantidad" style="text;html=1;strokeColor=none;fillColor=none;align=left;verticalAlign=middle;spacingLeft=4;spacingRight=4;overflow=hidden;rotatable=0;points=[[0,0.5],[1,0.5]];portConstraint=eastwest;whiteSpace=wrap;" vertex="1" parent="dq-Q5Z8Co1_moTkSFwci-197">
          <mxGeometry y="70" width="140" height="20" as="geometry" />
        </mxCell>
        <mxCell id="dq-Q5Z8Co1_moTkSFwci-203" value="+ cantidad" style="text;html=1;strokeColor=none;fillColor=none;align=left;verticalAlign=middle;spacingLeft=4;spacingRight=4;overflow=hidden;rotatable=0;points=[[0,0.5],[1,0.5]];portConstraint=eastwest;whiteSpace=wrap;" vertex="1" parent="dq-Q5Z8Co1_moTkSFwci-197">
          <mxGeometry y="90" width="140" height="20" as="geometry" />
        </mxCell>
        <mxCell id="dq-Q5Z8Co1_moTkSFwci-199" value="" style="line;strokeWidth=1;fillColor=none;align=left;verticalAlign=middle;spacingTop=-1;spacingLeft=3;spacingRight=3;rotatable=0;labelPosition=right;points=[];portConstraint=eastwest;" vertex="1" parent="dq-Q5Z8Co1_moTkSFwci-197">
          <mxGeometry y="110" width="140" height="8" as="geometry" />
        </mxCell>
        <mxCell id="dq-Q5Z8Co1_moTkSFwci-200" value="+ cobrar_comision()" style="text;html=1;strokeColor=none;fillColor=none;align=left;verticalAlign=middle;spacingLeft=4;spacingRight=4;overflow=hidden;rotatable=0;points=[[0,0.5],[1,0.5]];portConstraint=eastwest;whiteSpace=wrap;" vertex="1" parent="dq-Q5Z8Co1_moTkSFwci-197">
          <mxGeometry y="118" width="140" height="20" as="geometry" />
        </mxCell>
        <mxCell id="dq-Q5Z8Co1_moTkSFwci-204" value="+ pagar()" style="text;html=1;strokeColor=none;fillColor=none;align=left;verticalAlign=middle;spacingLeft=4;spacingRight=4;overflow=hidden;rotatable=0;points=[[0,0.5],[1,0.5]];portConstraint=eastwest;whiteSpace=wrap;" vertex="1" parent="dq-Q5Z8Co1_moTkSFwci-197">
          <mxGeometry y="138" width="140" height="20" as="geometry" />
        </mxCell>
        <mxCell id="dq-Q5Z8Co1_moTkSFwci-205" value="Servicios" style="swimlane;fontStyle=0;align=center;verticalAlign=top;childLayout=stackLayout;horizontal=1;startSize=30;horizontalStack=0;resizeParent=1;resizeParentMax=0;resizeLast=0;collapsible=0;marginBottom=0;html=1;whiteSpace=wrap;" vertex="1" parent="1">
          <mxGeometry x="-360" y="560" width="140" height="118" as="geometry" />
        </mxCell>
        <mxCell id="dq-Q5Z8Co1_moTkSFwci-163" value="+ ID" style="text;html=1;strokeColor=none;fillColor=none;align=left;verticalAlign=middle;spacingLeft=4;spacingRight=4;overflow=hidden;rotatable=0;points=[[0,0.5],[1,0.5]];portConstraint=eastwest;whiteSpace=wrap;" vertex="1" parent="dq-Q5Z8Co1_moTkSFwci-205">
          <mxGeometry y="30" width="140" height="20" as="geometry" />
        </mxCell>
        <mxCell id="dq-Q5Z8Co1_moTkSFwci-166" value="+ nombre" style="text;html=1;strokeColor=none;fillColor=none;align=left;verticalAlign=middle;spacingLeft=4;spacingRight=4;overflow=hidden;rotatable=0;points=[[0,0.5],[1,0.5]];portConstraint=eastwest;whiteSpace=wrap;" vertex="1" parent="dq-Q5Z8Co1_moTkSFwci-205">
          <mxGeometry y="50" width="140" height="20" as="geometry" />
        </mxCell>
        <mxCell id="dq-Q5Z8Co1_moTkSFwci-168" value="+ contacto" style="text;html=1;strokeColor=none;fillColor=none;align=left;verticalAlign=middle;spacingLeft=4;spacingRight=4;overflow=hidden;rotatable=0;points=[[0,0.5],[1,0.5]];portConstraint=eastwest;whiteSpace=wrap;" vertex="1" parent="dq-Q5Z8Co1_moTkSFwci-205">
          <mxGeometry y="70" width="140" height="20" as="geometry" />
        </mxCell>
        <mxCell id="dq-Q5Z8Co1_moTkSFwci-207" value="" style="line;strokeWidth=1;fillColor=none;align=left;verticalAlign=middle;spacingTop=-1;spacingLeft=3;spacingRight=3;rotatable=0;labelPosition=right;points=[];portConstraint=eastwest;" vertex="1" parent="dq-Q5Z8Co1_moTkSFwci-205">
          <mxGeometry y="90" width="140" height="8" as="geometry" />
        </mxCell>
        <mxCell id="dq-Q5Z8Co1_moTkSFwci-208" value="+" style="text;html=1;strokeColor=none;fillColor=none;align=left;verticalAlign=middle;spacingLeft=4;spacingRight=4;overflow=hidden;rotatable=0;points=[[0,0.5],[1,0.5]];portConstraint=eastwest;whiteSpace=wrap;" vertex="1" parent="dq-Q5Z8Co1_moTkSFwci-205">
          <mxGeometry y="98" width="140" height="20" as="geometry" />
        </mxCell>
        <mxCell id="dq-Q5Z8Co1_moTkSFwci-228" value="1" style="endArrow=open;html=1;endSize=12;startArrow=diamondThin;startSize=14;startFill=0;align=left;verticalAlign=bottom;rounded=0;exitX=1.003;exitY=0.065;exitDx=0;exitDy=0;entryX=0;entryY=0.5;entryDx=0;entryDy=0;exitPerimeter=0;" edge="1" parent="1" source="dq-Q5Z8Co1_moTkSFwci-90" target="dq-Q5Z8Co1_moTkSFwci-78">
          <mxGeometry x="-0.7196" y="-7" relative="1" as="geometry">
            <mxPoint x="420" y="500" as="sourcePoint" />
            <mxPoint x="580" y="500" as="targetPoint" />
            <mxPoint x="-1" as="offset" />
          </mxGeometry>
        </mxCell>
        <mxCell id="dq-Q5Z8Co1_moTkSFwci-229" value="n" style="edgeLabel;html=1;align=center;verticalAlign=middle;resizable=0;points=[];" vertex="1" connectable="0" parent="dq-Q5Z8Co1_moTkSFwci-228">
          <mxGeometry x="0.7656" y="-1" relative="1" as="geometry">
            <mxPoint as="offset" />
          </mxGeometry>
        </mxCell>
        <mxCell id="dq-Q5Z8Co1_moTkSFwci-230" value="1" style="endArrow=open;html=1;endSize=12;startArrow=diamondThin;startSize=14;startFill=0;align=left;verticalAlign=bottom;rounded=0;exitX=0.25;exitY=0;exitDx=0;exitDy=0;" edge="1" parent="1" source="dq-Q5Z8Co1_moTkSFwci-90" target="dq-Q5Z8Co1_moTkSFwci-84">
          <mxGeometry x="-0.5395" y="8" relative="1" as="geometry">
            <mxPoint x="590" y="590" as="sourcePoint" />
            <mxPoint x="780" y="478" as="targetPoint" />
            <mxPoint as="offset" />
          </mxGeometry>
        </mxCell>
        <mxCell id="dq-Q5Z8Co1_moTkSFwci-231" value="n" style="edgeLabel;html=1;align=center;verticalAlign=middle;resizable=0;points=[];" vertex="1" connectable="0" parent="dq-Q5Z8Co1_moTkSFwci-230">
          <mxGeometry x="0.7656" y="-1" relative="1" as="geometry">
            <mxPoint x="3" y="2" as="offset" />
          </mxGeometry>
        </mxCell>
        <mxCell id="dq-Q5Z8Co1_moTkSFwci-262" value="administra" style="edgeLabel;html=1;align=center;verticalAlign=middle;resizable=0;points=[];" vertex="1" connectable="0" parent="dq-Q5Z8Co1_moTkSFwci-230">
          <mxGeometry x="0.1452" y="1" relative="1" as="geometry">
            <mxPoint as="offset" />
          </mxGeometry>
        </mxCell>
        <mxCell id="dq-Q5Z8Co1_moTkSFwci-232" value="1" style="endArrow=open;html=1;endSize=12;startArrow=diamondThin;startSize=14;startFill=0;align=left;verticalAlign=bottom;rounded=0;exitX=0.5;exitY=0;exitDx=0;exitDy=0;" edge="1" parent="1" source="dq-Q5Z8Co1_moTkSFwci-90" target="dq-Q5Z8Co1_moTkSFwci-137">
          <mxGeometry x="-0.5851" y="4" relative="1" as="geometry">
            <mxPoint x="600" y="600" as="sourcePoint" />
            <mxPoint x="790" y="488" as="targetPoint" />
            <mxPoint x="-1" as="offset" />
          </mxGeometry>
        </mxCell>
        <mxCell id="dq-Q5Z8Co1_moTkSFwci-233" value="n" style="edgeLabel;html=1;align=center;verticalAlign=middle;resizable=0;points=[];" vertex="1" connectable="0" parent="dq-Q5Z8Co1_moTkSFwci-232">
          <mxGeometry x="0.7656" y="-1" relative="1" as="geometry">
            <mxPoint x="3" y="8" as="offset" />
          </mxGeometry>
        </mxCell>
        <mxCell id="dq-Q5Z8Co1_moTkSFwci-261" value="juzga" style="edgeLabel;html=1;align=center;verticalAlign=middle;resizable=0;points=[];" vertex="1" connectable="0" parent="dq-Q5Z8Co1_moTkSFwci-232">
          <mxGeometry x="0.1482" relative="1" as="geometry">
            <mxPoint as="offset" />
          </mxGeometry>
        </mxCell>
        <mxCell id="dq-Q5Z8Co1_moTkSFwci-234" value="1" style="endArrow=open;html=1;endSize=12;startArrow=diamondThin;startSize=14;startFill=0;align=left;verticalAlign=bottom;rounded=0;exitX=0.75;exitY=0;exitDx=0;exitDy=0;" edge="1" parent="1" source="dq-Q5Z8Co1_moTkSFwci-90" target="dq-Q5Z8Co1_moTkSFwci-75">
          <mxGeometry x="-0.6417" y="-4" relative="1" as="geometry">
            <mxPoint x="520" y="550" as="sourcePoint" />
            <mxPoint x="493" y="448" as="targetPoint" />
            <mxPoint as="offset" />
          </mxGeometry>
        </mxCell>
        <mxCell id="dq-Q5Z8Co1_moTkSFwci-235" value="n" style="edgeLabel;html=1;align=center;verticalAlign=middle;resizable=0;points=[];" vertex="1" connectable="0" parent="dq-Q5Z8Co1_moTkSFwci-234">
          <mxGeometry x="0.7656" y="-1" relative="1" as="geometry">
            <mxPoint x="-5" y="2" as="offset" />
          </mxGeometry>
        </mxCell>
        <mxCell id="dq-Q5Z8Co1_moTkSFwci-260" value="participa" style="edgeLabel;html=1;align=center;verticalAlign=middle;resizable=0;points=[];" vertex="1" connectable="0" parent="dq-Q5Z8Co1_moTkSFwci-234">
          <mxGeometry x="0.1622" relative="1" as="geometry">
            <mxPoint as="offset" />
          </mxGeometry>
        </mxCell>
        <mxCell id="dq-Q5Z8Co1_moTkSFwci-241" value="1" style="endArrow=open;html=1;endSize=12;startArrow=diamondThin;startSize=14;startFill=1;edgeStyle=orthogonalEdgeStyle;align=left;verticalAlign=bottom;rounded=0;entryX=0.45;entryY=-0.004;entryDx=0;entryDy=0;entryPerimeter=0;" edge="1" parent="1" source="dq-Q5Z8Co1_moTkSFwci-79" target="dq-Q5Z8Co1_moTkSFwci-99">
          <mxGeometry x="-0.2611" y="-1" relative="1" as="geometry">
            <mxPoint x="715" y="810" as="sourcePoint" />
            <mxPoint x="900" y="540" as="targetPoint" />
            <Array as="points">
              <mxPoint x="928" y="583" />
              <mxPoint x="959" y="583" />
            </Array>
            <mxPoint as="offset" />
          </mxGeometry>
        </mxCell>
        <mxCell id="dq-Q5Z8Co1_moTkSFwci-242" value="n" style="edgeLabel;html=1;align=center;verticalAlign=middle;resizable=0;points=[];" vertex="1" connectable="0" parent="dq-Q5Z8Co1_moTkSFwci-241">
          <mxGeometry x="0.844" y="2" relative="1" as="geometry">
            <mxPoint x="-3" y="-16" as="offset" />
          </mxGeometry>
        </mxCell>
        <mxCell id="dq-Q5Z8Co1_moTkSFwci-243" value="1" style="endArrow=open;html=1;endSize=12;startArrow=diamondThin;startSize=14;startFill=0;align=left;verticalAlign=bottom;rounded=0;entryX=0.5;entryY=0;entryDx=0;entryDy=0;edgeStyle=orthogonalEdgeStyle;" edge="1" parent="1" source="dq-Q5Z8Co1_moTkSFwci-102" target="dq-Q5Z8Co1_moTkSFwci-115">
          <mxGeometry x="-0.234" y="-5" relative="1" as="geometry">
            <mxPoint x="590" y="564" as="sourcePoint" />
            <mxPoint x="780" y="478" as="targetPoint" />
            <mxPoint as="offset" />
            <Array as="points">
              <mxPoint x="956" y="836" />
              <mxPoint x="956" y="836" />
            </Array>
          </mxGeometry>
        </mxCell>
        <mxCell id="dq-Q5Z8Co1_moTkSFwci-244" value="n" style="edgeLabel;html=1;align=center;verticalAlign=middle;resizable=0;points=[];" vertex="1" connectable="0" parent="dq-Q5Z8Co1_moTkSFwci-243">
          <mxGeometry x="0.7656" y="-1" relative="1" as="geometry">
            <mxPoint x="1" y="-17" as="offset" />
          </mxGeometry>
        </mxCell>
        <mxCell id="dq-Q5Z8Co1_moTkSFwci-245" value="1" style="endArrow=open;html=1;endSize=12;startArrow=diamondThin;startSize=14;startFill=1;edgeStyle=orthogonalEdgeStyle;align=left;verticalAlign=bottom;rounded=0;" edge="1" parent="1" source="dq-Q5Z8Co1_moTkSFwci-79" target="dq-Q5Z8Co1_moTkSFwci-105">
          <mxGeometry x="-0.8177" relative="1" as="geometry">
            <mxPoint x="833" y="508" as="sourcePoint" />
            <mxPoint x="833" y="619" as="targetPoint" />
            <Array as="points">
              <mxPoint x="866" y="724" />
              <mxPoint x="710" y="724" />
            </Array>
            <mxPoint as="offset" />
          </mxGeometry>
        </mxCell>
        <mxCell id="dq-Q5Z8Co1_moTkSFwci-246" value="n" style="edgeLabel;html=1;align=center;verticalAlign=middle;resizable=0;points=[];" vertex="1" connectable="0" parent="dq-Q5Z8Co1_moTkSFwci-245">
          <mxGeometry x="0.844" y="2" relative="1" as="geometry">
            <mxPoint x="-3" y="-16" as="offset" />
          </mxGeometry>
        </mxCell>
        <mxCell id="dq-Q5Z8Co1_moTkSFwci-248" value="1" style="endArrow=open;html=1;endSize=12;startArrow=diamondThin;startSize=14;startFill=0;align=left;verticalAlign=bottom;rounded=0;exitX=1;exitY=0.5;exitDx=0;exitDy=0;entryX=0;entryY=0.5;entryDx=0;entryDy=0;" edge="1" parent="1" source="dq-Q5Z8Co1_moTkSFwci-106" target="dq-Q5Z8Co1_moTkSFwci-116">
          <mxGeometry x="-0.5448" y="-8" relative="1" as="geometry">
            <mxPoint x="790" y="878" as="sourcePoint" />
            <mxPoint x="880" y="884" as="targetPoint" />
            <mxPoint as="offset" />
          </mxGeometry>
        </mxCell>
        <mxCell id="dq-Q5Z8Co1_moTkSFwci-249" value="n" style="edgeLabel;html=1;align=center;verticalAlign=middle;resizable=0;points=[];" vertex="1" connectable="0" parent="dq-Q5Z8Co1_moTkSFwci-248">
          <mxGeometry x="0.7656" y="-1" relative="1" as="geometry">
            <mxPoint x="-7" y="-6" as="offset" />
          </mxGeometry>
        </mxCell>
        <mxCell id="dq-Q5Z8Co1_moTkSFwci-250" style="edgeStyle=orthogonalEdgeStyle;rounded=0;orthogonalLoop=1;jettySize=auto;html=1;exitX=1;exitY=0.5;exitDx=0;exitDy=0;entryX=0;entryY=0.5;entryDx=0;entryDy=0;endArrow=none;endFill=0;" edge="1" parent="1" source="dq-Q5Z8Co1_moTkSFwci-87" target="dq-Q5Z8Co1_moTkSFwci-95">
          <mxGeometry relative="1" as="geometry" />
        </mxCell>
        <mxCell id="dq-Q5Z8Co1_moTkSFwci-253" value="n" style="endArrow=open;html=1;endSize=12;startArrow=diamondThin;startSize=14;startFill=0;align=left;verticalAlign=bottom;rounded=0;exitX=1;exitY=0.5;exitDx=0;exitDy=0;entryX=0;entryY=0.5;entryDx=0;entryDy=0;" edge="1" parent="1" source="dq-Q5Z8Co1_moTkSFwci-163" target="dq-Q5Z8Co1_moTkSFwci-94">
          <mxGeometry x="-0.8158" y="-7" relative="1" as="geometry">
            <mxPoint x="449" y="569" as="sourcePoint" />
            <mxPoint x="330" y="488" as="targetPoint" />
            <mxPoint as="offset" />
          </mxGeometry>
        </mxCell>
        <mxCell id="dq-Q5Z8Co1_moTkSFwci-254" value="1" style="edgeLabel;html=1;align=center;verticalAlign=middle;resizable=0;points=[];" vertex="1" connectable="0" parent="dq-Q5Z8Co1_moTkSFwci-253">
          <mxGeometry x="0.7656" y="-1" relative="1" as="geometry">
            <mxPoint x="6" y="3" as="offset" />
          </mxGeometry>
        </mxCell>
        <mxCell id="dq-Q5Z8Co1_moTkSFwci-258" value="Use" style="endArrow=open;endSize=12;dashed=1;html=1;rounded=0;exitX=0;exitY=0.5;exitDx=0;exitDy=0;entryX=1;entryY=0.5;entryDx=0;entryDy=0;" edge="1" parent="1" source="dq-Q5Z8Co1_moTkSFwci-91" target="dq-Q5Z8Co1_moTkSFwci-202">
          <mxGeometry width="160" relative="1" as="geometry">
            <mxPoint x="235" y="361" as="sourcePoint" />
            <mxPoint x="90" y="400" as="targetPoint" />
          </mxGeometry>
        </mxCell>
        <mxCell id="dq-Q5Z8Co1_moTkSFwci-259" value="Use" style="endArrow=open;endSize=12;dashed=1;html=1;rounded=0;exitX=0.5;exitY=0;exitDx=0;exitDy=0;entryX=0;entryY=0.5;entryDx=0;entryDy=0;" edge="1" parent="1" source="dq-Q5Z8Co1_moTkSFwci-205" target="dq-Q5Z8Co1_moTkSFwci-202">
          <mxGeometry width="160" relative="1" as="geometry">
            <mxPoint x="10" y="540" as="sourcePoint" />
            <mxPoint x="170" y="540" as="targetPoint" />
          </mxGeometry>
        </mxCell>
        <mxCell id="dq-Q5Z8Co1_moTkSFwci-279" value="1" style="endArrow=open;html=1;endSize=12;startArrow=diamondThin;startSize=14;startFill=0;align=left;verticalAlign=bottom;rounded=0;exitX=0;exitY=0.5;exitDx=0;exitDy=0;entryX=0.75;entryY=0;entryDx=0;entryDy=0;edgeStyle=orthogonalEdgeStyle;" edge="1" parent="1" source="dq-Q5Z8Co1_moTkSFwci-103" target="dq-Q5Z8Co1_moTkSFwci-105">
          <mxGeometry x="-0.5981" y="4" relative="1" as="geometry">
            <mxPoint x="790" y="870" as="sourcePoint" />
            <mxPoint x="900" y="872" as="targetPoint" />
            <mxPoint as="offset" />
          </mxGeometry>
        </mxCell>
        <mxCell id="dq-Q5Z8Co1_moTkSFwci-280" value="n" style="edgeLabel;html=1;align=center;verticalAlign=middle;resizable=0;points=[];" connectable="0" vertex="1" parent="dq-Q5Z8Co1_moTkSFwci-279">
          <mxGeometry x="0.7656" y="-1" relative="1" as="geometry">
            <mxPoint x="-1" y="-10" as="offset" />
          </mxGeometry>
        </mxCell>
        <mxCell id="dq-Q5Z8Co1_moTkSFwci-276" value="1" style="endArrow=open;html=1;endSize=12;startArrow=diamondThin;startSize=14;startFill=0;align=left;verticalAlign=bottom;rounded=0;exitX=0.25;exitY=0;exitDx=0;exitDy=0;entryX=1;entryY=0.5;entryDx=0;entryDy=0;" edge="1" parent="1" source="dq-Q5Z8Co1_moTkSFwci-105" target="dq-Q5Z8Co1_moTkSFwci-97">
          <mxGeometry x="-0.4727" y="3" relative="1" as="geometry">
            <mxPoint x="668" y="788" as="sourcePoint" />
            <mxPoint x="583" y="678" as="targetPoint" />
            <mxPoint as="offset" />
          </mxGeometry>
        </mxCell>
        <mxCell id="dq-Q5Z8Co1_moTkSFwci-277" value="n" style="edgeLabel;html=1;align=center;verticalAlign=middle;resizable=0;points=[];" connectable="0" vertex="1" parent="dq-Q5Z8Co1_moTkSFwci-276">
          <mxGeometry x="0.7656" y="-1" relative="1" as="geometry">
            <mxPoint x="3" y="8" as="offset" />
          </mxGeometry>
        </mxCell>
        <mxCell id="LRc-RndAutX1u3jBctT4-1" value="Use" style="endArrow=open;endSize=12;dashed=1;html=1;rounded=0;exitX=0.219;exitY=1.036;exitDx=0;exitDy=0;entryX=0.5;entryY=0;entryDx=0;entryDy=0;exitPerimeter=0;" edge="1" parent="1" source="dq-Q5Z8Co1_moTkSFwci-79" target="dq-Q5Z8Co1_moTkSFwci-158">
          <mxGeometry width="160" relative="1" as="geometry">
            <mxPoint x="450" y="590" as="sourcePoint" />
            <mxPoint x="70" y="576" as="targetPoint" />
          </mxGeometry>
        </mxCell>
        <mxCell id="LRc-RndAutX1u3jBctT4-2" value="Use" style="endArrow=open;endSize=12;dashed=1;html=1;rounded=0;exitX=0;exitY=0.5;exitDx=0;exitDy=0;entryX=1;entryY=0.25;entryDx=0;entryDy=0;" edge="1" parent="1" source="dq-Q5Z8Co1_moTkSFwci-159" target="dq-Q5Z8Co1_moTkSFwci-90">
          <mxGeometry width="160" relative="1" as="geometry">
            <mxPoint x="815" y="509" as="sourcePoint" />
            <mxPoint x="779" y="550" as="targetPoint" />
          </mxGeometry>
        </mxCell>
        <mxCell id="jhDXq2kjpjFJxSoLgz5m-3" value="1" style="endArrow=open;html=1;endSize=12;startArrow=diamondThin;startSize=14;startFill=0;edgeStyle=orthogonalEdgeStyle;align=left;verticalAlign=bottom;rounded=0;exitX=0.25;exitY=0;exitDx=0;exitDy=0;entryX=0.75;entryY=0;entryDx=0;entryDy=0;" edge="1" parent="1" source="dq-Q5Z8Co1_moTkSFwci-40" target="dq-Q5Z8Co1_moTkSFwci-21">
          <mxGeometry x="-0.821" y="2" relative="1" as="geometry">
            <mxPoint x="683" y="349" as="sourcePoint" />
            <mxPoint x="1097" y="461" as="targetPoint" />
            <Array as="points">
              <mxPoint x="810" y="287" />
              <mxPoint x="693" y="287" />
            </Array>
            <mxPoint as="offset" />
          </mxGeometry>
        </mxCell>
        <mxCell id="jhDXq2kjpjFJxSoLgz5m-4" value="n" style="edgeLabel;html=1;align=center;verticalAlign=middle;resizable=0;points=[];" connectable="0" vertex="1" parent="jhDXq2kjpjFJxSoLgz5m-3">
          <mxGeometry x="0.6331" y="2" relative="1" as="geometry">
            <mxPoint y="1" as="offset" />
          </mxGeometry>
        </mxCell>
      </root>
    </mxGraphModel>
  </diagram>
</mxfile>
